<svg xmlns="http://www.w3.org/2000/svg" xmlns:xlink="http://www.w3.org/1999/xlink" viewBox="0 0 1261.42 952.44"><defs><style>.cls-1{fill:url(#linear-gradient);}</style><linearGradient id="linear-gradient" x1="628.22" y1="16.26" x2="643.14" y2="906.07" gradientUnits="userSpaceOnUse"><stop offset="0.44" stop-color="#fff"/><stop offset="0.91" stop-color="#fff" stop-opacity="0.8"/></linearGradient></defs><g id="Layer_2" data-name="Layer 2"><g id="Layer_1-2" data-name="Layer 1"><path class="cls-1" d="M1261.42,0C1206.6,106.74,1137.8,205.13,1045,293.52c-143.64,136.77-295.74,254.35-390.26,430A1015.17,1015.17,0,0,0,565,952.44H310.57c.73-17.39-4.27-35.82-14.14-49.75-9.26-13.06-29-18.46-44-14-15.95,4.81-22.33,19.52-25.16,34.67a117.06,117.06,0,0,0-1.49,29H156.44c-2.43-77.13-12.79-152.68-21.53-222.37C117.87,594.06,65.2,449.71,0,330V0Z"/></g></g></svg>