<svg xmlns="http://www.w3.org/2000/svg" viewBox="0 0 22.66 20.74"><defs><style>.cls-1{fill:#00674e;}</style></defs><g id="Layer_2" data-name="Layer 2"><g id="Layer_1-2" data-name="Layer 1"><path class="cls-1" d="M12.82,9.44a5.31,5.31,0,1,0-6.55,0,9.55,9.55,0,0,0-6.27,9,.87.87,0,0,0,.88.88h12L11.6,17.52H1.8A7.81,7.81,0,0,1,9.54,10.6h0a7.8,7.8,0,0,1,6.68,3.81l1.08-1.55A9.61,9.61,0,0,0,12.82,9.44ZM9.55,1.76A3.55,3.55,0,1,1,6,5.3,3.55,3.55,0,0,1,9.55,1.76Z"/><path class="cls-1" d="M16.08,20.74,12.6,15.9a.88.88,0,0,1,.2-1.22.86.86,0,0,1,1.22.2l2,2.82,5-7.14a.87.87,0,0,1,1.22-.22.88.88,0,0,1,.21,1.22Z"/></g></g></svg>