<svg xmlns="http://www.w3.org/2000/svg" viewBox="0 0 856.18 785.99"><defs><style>.cls-1{fill:#00674e;}</style></defs><g id="Layer_2" data-name="Layer 2"><g id="Layer_2-2" data-name="Layer 2"><path class="cls-1" d="M856.18,0c-6.93,8.88-20,15.41-39,29.54-100.07,74.28-245.9,272.75-316.54,459.24-22.57,59.6-46.08,120-62.33,183.17-16.64,64.68-63,110.47-117.12,113.66-1.41.09-2.84.16-4.29.22s-2.87.11-4.28.14C266.08,787,224.3,751.21,206.68,697.2a87.26,87.26,0,0,0-6.83-15.73c-7.93-14-24.85-19.86-37.66-15-13.65,5.17-19.12,21-21.54,37.29l-3.05,28.49c-2.4,16.44-16.95,26.45-30.26,26.45h0c-19.34,0-43.91-15.48-40.69-56.19,5.47-69.09-12.17-149.89-20.35-212.57C37.27,420.77-.07,363.13,0,287.38V0Z"/></g></g></svg>