<svg xmlns="http://www.w3.org/2000/svg" viewBox="0 0 1366 1011.83"><defs><style>.cls-1{fill:#fff;}</style></defs><g id="Layer_2" data-name="Layer 2"><g id="Layer_2-2" data-name="Layer 2"><path class="cls-1" d="M1366,0H0V101.24H0l0,14.41c275.23,28.17,555.32-98.36,623.21,487.16,21.63,186.6,22.92,213.66,16.16,377.87-.7,17,6.85,31.15,21.18,31.15h0c14.33,0,21.88-14.2,21.18-31.15-6.76-164.21-8.12-191.59,16.16-377.87C769.3,55,1013.1,127.11,1366,115.65V0ZM640.33,148.45c-1.94,32-7.28,105.93-57.22,76.91-14.4-14.4-28.26-25.83-39.55-43.53q-3.57-5.61-6.9-11.31c-9.4-16.05-17.58-32.66-26-49.5-9.31-18.7-18.86-38.43-18-59.31C493,53.59,495,45.3,500,38.85c7.16-9.32,19.58-13.5,31.32-13S554.19,31,564.55,36.51C599.64,55.28,629,87.22,638.08,126A78.2,78.2,0,0,1,640.33,148.45Z"/></g></g></svg>