<svg xmlns="http://www.w3.org/2000/svg" viewBox="0 0 336.57 532.08"><defs><style>.cls-1{fill:none;}.cls-2{fill:#00ae42;}</style></defs><g id="Layer_2" data-name="Layer 2"><g id="Layer_2-2" data-name="Layer 2"><path class="cls-1" d="M44.17,337.57c20,16.18,46.88,17.26,56,15.28,7-1.5,17.26-5.85,27.65-10.79,8.46-19.52,36-41.1,39.3-43.63,21.18-17.92,58.49-49.53,74.94-63.63V214.69h-159c-1.66.18-61.55,6-61.55,69.53C21.58,307.52,29.17,325.47,44.17,337.57Z"/><path class="cls-1" d="M145.52,357.38c-7.1,27.49.63,49.36,23.43,64.88,17.29,11.78,34.27,10.32,45.52,7,12.07-3.56,22-10.64,27.63-17.34V398.15h7.06c3.09-8.13,8.17-21.82,14.08-37.87H242.1v-38h35.07c4.75-13,9.49-25.95,13.85-37.89H272.44L172.32,343.08C171.37,343.63,159.61,350.31,145.52,357.38Z"/><path class="cls-1" d="M188.55,308.57,242.1,277.2v-14C224.27,278.33,200.69,298.3,188.55,308.57Z"/><polygon class="cls-2" points="336.57 464.55 336.57 369.75 317.35 369.75 317.35 398.15 288.87 398.15 288.87 436.04 317.35 436.04 317.35 464.55 336.57 464.55"/><path class="cls-2" d="M30.62,354.35c25.38,20.48,59,22.87,74.14,19.58a112.64,112.64,0,0,0,17.1-5.7c-2.58,29.29,9.23,54.35,34.94,71.86A74.11,74.11,0,0,0,220.58,450,84.28,84.28,0,0,0,247.68,436h28.75V398.15H272.2c3.71-9.9,8.67-23.32,14-37.87h50.35v-38H300.14c5.33-14.58,10.22-28,13.83-37.89h22.6V192.57c-46.23.26-81.2.52-85.45.55l-168.83,0C53.82,195.4,0,217.32,0,284.22,0,313.94,10.59,338.19,30.62,354.35Zm241.82-69.92H291c-4.36,11.94-9.1,24.92-13.85,37.89H242.1v38h21.14c-5.91,16.05-11,29.74-14.08,37.87H242.1v13.77c-5.67,6.7-15.56,13.78-27.63,17.34-11.25,3.32-28.23,4.78-45.52-7-22.8-15.52-30.53-37.39-23.43-64.88,14.09-7.07,25.85-13.75,26.8-14.3Zm-83.89,24.14c12.14-10.27,35.72-30.24,53.55-45.41v14ZM83.13,214.69h159V234.8c-16.45,14.1-53.76,45.71-74.94,63.63-3.31,2.53-30.84,24.11-39.3,43.63-10.39,4.94-20.7,9.29-27.65,10.79-9.16,2-36,.9-56-15.28-15-12.1-22.59-30.05-22.59-53.35C21.58,220.73,81.47,214.87,83.13,214.69Z"/><path class="cls-2" d="M247.35,474c8.17,25.5,29.08,58.06,82.54,58.06h6.68V474Z"/><path class="cls-2" d="M305.34,81.43c7.86-2.46,8.13-1.64,9-2.05,0,0,4.18-72.54-66.94-79.38C247.35,0,296.25,45.55,305.34,81.43Z"/><path class="cls-2" d="M336.57,87.08h-6.68s-87.79,0-87.79,87.77v3.47h94.47Z"/></g></g></svg>