<?xml version="1.0" encoding="utf-8"?>
<!-- Generator: Adobe Illustrator 24.3.0, SVG Export Plug-In . SVG Version: 6.00 Build 0)  -->
<svg version="1.1" id="Layer_1" xmlns="http://www.w3.org/2000/svg" xmlns:xlink="http://www.w3.org/1999/xlink" x="0px" y="0px"
	 viewBox="0 0 671.98 440.7" style="enable-background:new 0 0 671.98 440.7;" xml:space="preserve">
<style type="text/css">
	.st0{fill:#FFFFFF;}
</style>
<path class="st0" d="M0,0c18.03,40.26,50.33,94.8,77.85,137.52c42.29,65.63,65.01,137.43,72.88,200.29
	c4.04,32.25,8.83,67.21,9.96,102.89h32.11c-0.3-4.5-0.13-9.02,0.69-13.44c1.31-7.01,4.26-13.81,11.64-16.04
	c6.91-2.09,16.05,0.41,20.34,6.46c4.57,6.45,6.88,14.97,6.54,23.02h117.73c9.39-36.72,23.47-72.41,41.51-105.93
	c43.73-81.27,114.11-135.68,180.58-198.96C614.78,94.91,646.62,49.39,671.98,0H0z"/>
</svg>
