<?xml version="1.0" encoding="utf-8"?>
<!-- Generator: Adobe Illustrator 24.3.0, SVG Export Plug-In . SVG Version: 6.00 Build 0)  -->
<svg version="1.1" id="Layer_1" xmlns="http://www.w3.org/2000/svg" xmlns:xlink="http://www.w3.org/1999/xlink" x="0px" y="0px"
	 viewBox="0 0 327.45 315.6" style="enable-background:new 0 0 327.45 315.6;" xml:space="preserve">
<style type="text/css">
	.st0{fill:#04684F;}
</style>
<g>
	<g>
		<path class="st0" d="M1.9,0h35.72l39.59,63.69L116.8,0h35.72v150.62H119.6V52.29l-42.39,64.33h-0.86L34.39,52.93v97.68H1.9V0z"/>
		<path class="st0" d="M188.67,0h58.74c47.34,0,80.04,32.49,80.04,74.88v0.43c0,42.39-32.7,75.31-80.04,75.31h-58.74V0z
			 M221.8,29.91v90.8h25.6c27.11,0,45.4-18.29,45.4-44.97v-0.43c0-26.68-18.29-45.4-45.4-45.4H221.8z"/>
		<path class="st0" d="M1.39,171.62h13.41v24.13h24.74v-24.13h13.41v60.97H39.54v-24.47H14.81v24.47H1.39V171.62z"/>
		<path class="st0" d="M64.88,202.27v-0.17c0-17.33,13.67-31.53,32.49-31.53c18.81,0,32.31,14.02,32.31,31.35v0.17
			c0,17.33-13.67,31.53-32.49,31.53C78.38,233.63,64.88,219.61,64.88,202.27z M115.66,202.27v-0.17c0-10.45-7.67-19.16-18.46-19.16
			s-18.29,8.54-18.29,18.99v0.17c0,10.45,7.67,19.16,18.46,19.16S115.66,212.73,115.66,202.27z"/>
		<path class="st0" d="M141.61,171.62h12.37l28.57,37.54v-37.54h13.24v60.97h-11.41l-29.53-38.76v38.76h-13.24V171.62z"/>
		<path class="st0" d="M210.41,171.62h45.99v11.93h-32.66v12.37h28.74v11.93h-28.74v12.8h33.1v11.93h-46.42V171.62z"/>
		<path class="st0" d="M285.92,208.54l-23.43-36.93h15.68l14.55,24.47l14.81-24.47h15.24l-23.43,36.67v24.3h-13.41V208.54z"/>
		<path class="st0" d="M0,284.24v-0.17c0-17.25,12.89-31.53,30.83-31.53c11.06,0,17.68,3.92,23.78,9.67l-4.7,5.05
			c-5.14-4.88-10.89-8.36-19.16-8.36c-13.5,0-23.6,10.97-23.6,25v0.17c0,14.11,10.19,25.17,23.6,25.17c8.36,0,13.85-3.22,19.68-8.8
			l4.53,4.44c-6.36,6.45-13.33,10.71-24.39,10.71C12.98,315.6,0,301.75,0,284.24z"/>
		<path class="st0" d="M62.88,284.24v-0.17c0-16.81,12.63-31.53,31.18-31.53s31.01,14.55,31.01,31.36v0.17
			c0,16.81-12.63,31.53-31.18,31.53S62.88,301.05,62.88,284.24z M117.92,284.24v-0.17c0-13.85-10.1-25.17-24.04-25.17
			s-23.86,11.15-23.86,25v0.17c0,13.85,10.1,25.17,24.04,25.17S117.92,298.09,117.92,284.24z"/>
		<path class="st0" d="M134.12,305.41h8.01v9.15h-8.01V305.41z"/>
	</g>
</g>
</svg>
