<?xml version="1.0" encoding="utf-8"?>
<!-- Generator: Adobe Illustrator 24.3.0, SVG Export Plug-In . SVG Version: 6.00 Build 0)  -->
<svg version="1.1" id="Layer_1" xmlns="http://www.w3.org/2000/svg" xmlns:xlink="http://www.w3.org/1999/xlink" x="0px" y="0px"
	 viewBox="0 0 350 350" style="enable-background:new 0 0 350 350;" xml:space="preserve">
<style type="text/css">
	.st0{fill:#FFFFFF;}
</style>
<g>
	<path class="st0" d="M111.45,266.99c-12.68,0-21.71,10.14-21.71,22.74v0.16c0,12.6,9.19,22.9,21.87,22.9s21.71-10.14,21.71-22.74
		v-0.16C133.33,277.29,124.13,266.99,111.45,266.99z"/>
	<path class="st0" d="M114.47,197.87c-9.83,0-16.64,7.77-16.64,17.28v0.16c0,9.51,6.97,17.44,16.8,17.44s16.64-7.77,16.64-17.28
		v-0.16C131.27,205.8,124.29,197.87,114.47,197.87z"/>
	<path class="st0" d="M251.14,58.64h-23.3v82.62h23.3c24.67,0,41.31-16.64,41.31-40.92v-0.39
		C292.45,75.67,275.81,58.64,251.14,58.64z"/>
	<path class="st0" d="M19.3,0H0v17.2v310.45V350h19.3h311.75H350v-22.35V17.2V0H19.3z M264.87,187.57h14.26l13.24,22.27l13.47-22.27
		h13.87l-21.32,33.36v22.11h-12.2v-21.87L264.87,187.57z M251.14,168.46H197.7V31.42h53.45c43.07,0,72.83,29.56,72.83,68.13v0.39
		C323.97,138.51,294.21,168.46,251.14,168.46z M255.76,209.68v10.86H229.6v11.65h30.11v10.86h-42.24v-55.47h41.84v10.86H229.6v11.25
		H255.76z M114.47,244c-17.12,0-29.4-12.76-29.4-28.53v-0.16c0-15.77,12.44-28.69,29.56-28.69c17.12,0,29.4,12.76,29.4,28.53v0.16
		C144.03,231.08,131.58,244,114.47,244z M139.83,289.73v0.16c0,15.3-11.49,28.69-28.37,28.69c-16.88,0-28.21-13.23-28.21-28.53
		v-0.16c0-15.29,11.49-28.69,28.37-28.69C128.49,261.2,139.83,274.44,139.83,289.73z M134.85,168.46V79l-38.57,58.54H95.5
		L57.32,79.58v88.88H27.76V31.42h32.5l36.02,57.95l36.02-57.95h32.5v137.04H134.85z M39.5,220.78v22.27H27.3v-55.47h12.2v21.95
		h22.51v-21.95h12.2v55.47h-12.2v-22.27H39.5z M148.06,309.31h7.29v8.32h-7.29V309.31z M154.88,243.05v-55.47h11.25l25.99,34.16
		v-34.16h12.05v55.47h-10.38l-26.87-35.27v35.27H154.88z M26.03,289.89c0-15.69,11.73-28.69,28.05-28.69
		c10.06,0,16.09,3.57,21.63,8.8l-4.28,4.6c-4.68-4.44-9.91-7.61-17.43-7.61c-12.28,0-21.48,9.99-21.48,22.74v0.16
		c0,12.84,9.27,22.9,21.48,22.9c7.61,0,12.6-2.93,17.91-8l4.12,4.04c-5.79,5.86-12.13,9.75-22.19,9.75
		c-16.01,0-27.82-12.6-27.82-28.53V289.89z"/>
</g>
</svg>
