<svg xmlns="http://www.w3.org/2000/svg" xmlns:xlink="http://www.w3.org/1999/xlink" viewBox="0 0 134.32 196.92"><defs><style>.cls-1{fill:none;stroke:#000;stroke-linecap:round;stroke-linejoin:round;stroke-width:0.5px;}.cls-2{mask:url(#mask);}.cls-3{fill:#fff;}.cls-4{fill:#ffca80;}.cls-5{filter:url(#luminosity-noclip);}</style><filter id="luminosity-noclip" x="0" y="0" width="134.32" height="196.92" filterUnits="userSpaceOnUse" color-interpolation-filters="sRGB"><feFlood flood-color="#fff" result="bg"/><feBlend in="SourceGraphic" in2="bg"/></filter><mask id="mask" x="0" y="0" width="134.32" height="196.92" maskUnits="userSpaceOnUse"><g class="cls-5"><path class="cls-1" d="M18.3,154.21l.36-1.84-.73-1.14-.78-.36-1.58.41"/><path class="cls-1" d="M48.87,160l-1.63-.52-1.9-.46-1.3.28-.79.31-1.61,1.61-1,.64-.47-.59L40,160.13l-.35-.44-1.34.23-1.09-.18-.58-.8-.78-2-.62-.93-.35-.15-.77.13-.93-1-.78-.34-.39-1.4-.66-.41-.11-.57-.1-3.08.8-1.42.52-1.24-.12-.86,1.26-1.55,1.65-1.47,1.24-2,.3-.72,1.08-1.17,1.42-.65,1.43-.9.9-.29.46.06,1-1.25L45,134.16l1.48-.88.66-1.22,1.51-.57.58-1,.7-.67,1-.29.8-.44.46,0,2.1-.51.4-1.43,1.25-.62.07-.44.51-.75.54-.41.49-.08.81-.54.27-.6.51-.41.83-1.16,1.22-1.07,1-.49.41-1.26.74-.39.5-.62.72-1.68.51.12.31.55.93.41.35,1,0,.78.59.26.42.85.45.34-.1.64,1,.52,1-.62.49-.6.21-.64-.15-.44,1.24-1.17,1.39-.62.35-.64.33-1.3.72-.64,1.59-1.07.33-.64.58.54.51-.31.93-.21,1.47.34.39.49"/><path class="cls-1" d="M63.29,119l-.74.39-.46,0-.35.36-.57-.85-.38-1.43-1-.31-.29-.49-.76-.13-.25-1.11-.45-.39-.19-.67.13-.75.25-.23.28-1-.16-.77.2-.57.58-.39.68-.21.15-.75.6-.36.55-1.71.52-.39.08-.9.44-.18.62.1.78-.67.12-1.11-.1-.55.8-.31.52-.49-.1-.33-1.08-.5-.86-.72-.46-.88-.29-.16-1,.06-.45.2,0-.67.35-.83-1.2-1.63-.28-1.5"/><path class="cls-1" d="M29,187v-1.89l.24-1-.45-.57-.35-1.47.23-1.3v-1l-.51-1.24-.14-.91-.6-.85-.13-1.37-.22-.7-.5-.47-.19-1.11.15-1.58.58-1.39.64-2,.43-.41-.21-.65-1-1.06-.39-.18-.47.26-1.06,1.79-.45.23-.77-.16-1.61-2.35-1.81,1-1.11.11-.54-.26-.21-.86L18,164.42l-.08-.44.31-1.29,0-.31-.62-.23-.85-1.09L16.45,160l.2-.59,0-1.79.36-1.73.68-1.14.57-.54,1.32-.21,2-1.14,1-.36.6-.86.39-1.37.78-.75.56-.93,1-.7,1.65-.23.72-.26.81.36,1.9-1.29.53-.9.77.12.12.86-.52,1.24-.8,1.42.1,3.08.11.57.66.41.39,1.4.78.34.93,1,.77-.13.35.15.62.93.78,2,.58.8,1.09.18,1.34-.23.35.44.17,1.14.47.59,1-.64,1.61-1.61.79-.31,1.3-.28,1.9.46,2,.62"/><polyline class="cls-1" points="80.63 115.01 79.95 114.16 78.48 113.82 77.55 114.03 77.05 114.34 76.46 113.8 76.13 114.44 74.54 115.5 73.82 116.15 73.49 117.44 73.14 118.09 71.75 118.71 70.51 119.88 70.66 120.32 70.45 120.96 69.96 121.56 68.99 122.18 68.02 121.66 68.12 121.02 67.67 120.68 67.25 119.83 66.67 119.57 66.61 118.79 66.26 117.78 65.33 117.37 65.02 116.83 65.38 115.5 66.51 114.03 66.86 112.48 67.6 111.24 68.24 110.64 70.23 107.98 71.01 107.8 71.28 107.12 71.5 105.78 72.16 105.42 72.68 104.9 73.67 103.37 74.66 102.16 74.95 100.76 75.3 100.76"/><path class="cls-1" d="M75,100.44l-.36,1.72-1,1.21-1,1.53-.52.52-.66.36-.86-.6-.44-.92"/><path class="cls-1" d="M106.05,98l-1.16-1.21-1-.26-1.53-.13-4,.47-1.81.15-.93-.39-.85.24-1.48-.08-2.19.29"/><path class="cls-1" d="M110.1,92.8l-1.16-1-1.22-.16L107,91l.1-1.45-.29-.83.07-.93-.48-.6-.08-.62-.35-.13-.83-.75h-.74l-.45-.33.45-2.46.82-2.41-.51-1.29,1-1,1-.41,0-.86.23-.85-.58-.41.37-.83-.21-.83-.78-.26-.33-.57,0-.69.6-.73.76.8.89.34.06-.54.64-.26-.1-1,.61-.7,1.62-.08-.11-.67,1.26-1.53.14-1.55.91-.75,1-.23.66.44.62.13.56-.85,1.09-.78.56-.18.37-.62.52-.21"/><path class="cls-1" d="M125.92,71.19,125.24,70l-.53-.11-1.2-1.19-1.82-2.33,0-1.16-1-.75-.25.78L118,63.56l.21-.36-.07-1,.81-.54,1.44-.52.73-.88.14-1,1-.29.93-.64.41-.62.12-1.4,1.76,1.4L126,57l.79-2.38.68-1.14.82-1-.1-.33-.58.23-.28-.23.3-1,.35-.81.51-.41.36-1"/><path class="cls-1" d="M87.21,65.37l.82.44,1.43.08.66.59-.44.21-.39.65.4,1.08.41-.18.25,1.3.72.41.16.85L92,71l.35.46-.48,0-1,1.27-.25.54-.8.47-.37,1,.76.49,0,1.16.85,1,.25.91-.21,1.39.18.26-.61.31-.05.62L89,82.24l-.55,1"/><polyline class="cls-1" points="103.79 45.41 103.06 45.69 102.98 46.25 102.44 47 102.67 47.44 101.96 47.11 101.7 47.55 101.98 48.01 101.84 48.61 102.02 49.49 102.91 51.58 103.02 52.83 103.41 53.42 103.3 54.09 103.57 55 104.34 55.28 104.46 55.7 105.06 56.19 105.91 56.37 106.59 57.15 106.77 58.75 107.35 59.96 109.12 60.84 109.5 61.75 109.19 62.91 108.94 63.33 108.24 62.97 107.8 63.74 107.08 63.72 107.45 62.68 107.18 62.5 106.61 62.78 105.84 62.86 105.08 62.11 104.52 62.84 104.17 62.91 104.17 63.56 105.8 64.21 105.97 64.44 105.53 65.66 106.2 66.82 105.74 67.1 104.73 66.77 104.52 67.6 105.22 69.02 105.53 69.3 106.34 69.46 106.52 70.86 105.95 71.76 105.35 72.48 104.34 72.59 102.95 72.56 102.54 73.08 101.92 73.39 101.41 74.42 100.95 74.63 99.39 74.56 98.41 74.22 98.37 73.62 98.93 72.43 99.08 71.76 98.85 71.19 99.36 70.13 99.36 69.8 98.6 69.82 98.19 69.56 98.41 68.58 98.11 67.93 98.35 67.1 97.82 66.35 98.25 65.73 98.7 64.62 99.24 63.82 99.1 63.64 98.39 63.95 97.51 63.41 95.83 63.56 95.63 63.35 95.28 63.84 94.33 64.39 93.11 64.31 92.1 64.72 91.36 64.88 90.97 66.09 90.12 66.48 89.46 65.89 88.03 65.81 86.77 65.13"/><polyline class="cls-1" points="87.48 44.12 88.94 43.9 89.66 43.41 90.68 43.1 93.34 42.5 94.45 42.35 94.55 41.29 95.09 39.92 95.48 40.17 96.41 39.7"/><path class="cls-1" d="M88.6,26.25l-.48.29-2.18,1.8"/></g></mask></defs><g id="Layer_2" data-name="Layer 2"><g id="artwork"><g class="cls-2"><path class="cls-3" d="M118,63.56l-.52.21-.37.62-.56.18-1.09.78-.56.85-.62-.13-.66-.44-1,.23-.91.75-.14,1.55-1.26,1.53.11.67-1.62.08-.61.7.1,1-.64.26-.06.54-.89-.34-.76-.8.57-.9-.18-1.4-.81-.16-.31-.28-.7-1.42.21-.83,1,.33.47-.28-.68-1.16.44-1.22-.17-.23-1.63-.65v-.65l.35-.07.56-.73.76.75.77-.08.57-.28.27.18-.37,1,.72,0,.44-.77.7.36.25-.42.31-1.16-.38-.91L107.35,60l-.58-1.21-.18-1.61-.68-.77-.85-.18-.6-.49-.12-.42-.77-.28-.27-.91.11-.67-.39-.6-.11-1.24-.9-2.09-.17-.88L102,48l-.28-.46.26-.44.71.33-.23-.44.54-.75.08-.57.49-.18.5,1.4,1,.93.89,1.63-.56-.44-.74-.23.51-.18-1-.86-.85.06.21.85.39.1,0,.73.79,0,.25.65.53.23.31-.33.45.26.05.59.53,0-.45-1.42.39.15.39.8,2,1.09.84.21,2.29,1.83,1.92.73.79.15.62.44,1.11.21.43.26-.76.1.85.54.08-.62.55.21.77.05,2.1-.18,1.45-.88.56-.59.35-1,.51-.25.91-1.66,1.67-.34.46-.59,1-.21,0-.72,1,.18-.29.62-.95.31.12.75-.24,1.14.28.23.58-.23.1.33-.82,1-.68,1.14L126,57l-.53.62-1.76-1.4-.12,1.4-.41.62-.93.64-1,.29-.14,1-.73.88-1.44.52-.81.54.07,1Z"/><path class="cls-3" d="M94.49,36.27V37l-.76.1L93,36.86l-.29-.41-.27.18.1-.62.7,0,.34.31,1-.75.29.41Zm3.39-9.75.51.56.52.21-.37,1,.74,1.07-.52.62-.2-.65-.48.15-.2-.77-.41.08-1-.81.45-.05.14-.83-.55-.51.66-.18L97,26.13l.1-.55.54.11Zm-9.54-.11,1.18,1.71.81.52-.23.85.89.29-1.57,0L89.79,31l-.06.75-.42-1L89,30.63l.21.67-.31.29.41.41-.43.6.14.8.33.28h1.28l-.92.52L89,34l.42.64.68,2.28-.58-.26-.33.16-.47-.91-.79.34-.1.33h.64l-.41.34.3.31.05.93.24,0,.35-.75.46-.24,1.3.16.27.18-.37.85.18.6.21-.18.35-1.66.43,1.09,0,.39.74-.18-.24-.63.92.11,0,1,.35.33.75-.41.84,0,.5.37.49.67-.66.33-.39-.25-.55,1.37-.09,1.06-1.11.15-2.66.6-1,.31-.72.49-.7.1-.74-2.14-.58-1.4,1-.08.29.21-.18.41.59,1.19,0,.49.36.57,0-1,.6-.18-.82-.23.84-.65,0,.36.53-.59.56-.24.6.62.08-.77-1-.39-.29-.72-.31.36-.17-.49.58-.65-1.57-.1-.72.33-.25.73-.51-.13-.72.59-.36-.39L85.64,38l-.45-2.12-.6-1.16L83,32.57l-.35-.7-.07-.7.34-.41-.09.85L83.1,31l.35.05.68,1.25.36.18-.07.44.62.26-.47.15.08.54.49.21v-.41l.35.72.26-.28.21-1,0-1-.25-.05v-.78L86,31l-.33-.52L86,30l-.39-.23-.54.46-.72.05-.64-.36.19-.75.49.16.76-.11,1.55-1-.14-.38,1.57-1.3Z"/><path class="cls-3" d="M88,65.81l-.82-.44.29-1.09.08-2.61.54-1.52.26-1.09.23-1.76-.16-1,.82,0,.79.75L90,56.6l1-.08-.46-.85L90,55.62l-.53.36.08-.62,1.07-.85-.39-.6-.47.8-.35-.51.12-1.45.33-.7.56-.18,1.32-.11-.33-.31.25-.72-.65.59-.76-.18-.7-3-.66-1.71-.12-.83.74-.44L90,43.93l-.62.41-.35.62-.42-.15L88.24,44l.7-.1.72-.49,1-.31,2.66-.6,1.11-.15.09-1.06.55-1.37.39.25.66-.33,0,.77-.17,1,.54,1.19,1,.31,1-.36.39-.29.16.88.36.21-.31-1.66-.23-.67,0-.8-.37-1.27-.74-.88-.31-.62.8,0,.19-.24-.73-.15.5-.29-.33-.13.82-.33-.32-.16-.31-1.08.26-.78-.7-1L97,33.24l-.35-.64.1-.81h.93l.77.88.31-.36.35.7-.31.67.74.31.08,1,.31.34-.18.49.24.47.5-.36,1.32-.47.72.18-.18.49-.35,0-.29.49-.62.37-.39.56.37.7.29-.33-.07-.47.91-.15.6,1.52,0,1.48.33.88-.43.85.39.15.06.81-.41-.52.14,1,.46.8.16,1.32-.49.18-.08.57-.54.75.23.44-.71-.33-.26.44L102,48l-.14.6.17.88.9,2.09.11,1.24.39.6-.11.67.27.91.77.28.12.42.6.49.85.18.68.77.18,1.61.58,1.21,1.77.88.38.91-.31,1.16-.25.42-.7-.36-.44.77-.72,0,.37-1-.27-.18-.57.28-.77.08-.76-.75-.56.73-.35.07v.65l1.63.65.17.23-.44,1.22.68,1.16-.47.28-1-.33-.21.83.7,1.42.31.28.81.16.18,1.4-.57.9-.6.73-1,.1-1.39,0-.41.52-.62.31-.51,1-.46.2-1.55-.08-1-.33,0-.6.56-1.19.15-.67-.23-.57.51-1.06v-.34l-.76,0-.41-.26.22-1-.3-.65.24-.83-.53-.75.43-.62.45-1.11.54-.8-.14-.18-.71.31-.88-.54-1.68.15-.2-.21-.35.49-1,.55-1.22-.08-1,.41-.74.16L91,66.1l-.86.38-.66-.59Z"/><path class="cls-3" d="M89.77,98.43l-.21-.21.52-.72.35.08Zm15.83-.85-.83,2-.56.21-.6.93-.66,1.94-1.21,1.55L100,105.6l-.43.44-1.26.7-2.52,1.91L95,109l-.58.54-1.22,0L92.78,108l.21-1.14-.17-.26L91.48,106l-.58,0-.84.78-.4,0-.39-.31.13-.41-.09-.91.35-.9-.06-.73-.88.06-.48.69.68.31-.37.57-.68.16L86.82,105l-.4-.46,0-.83.72-.18.93-1,.29-.62.68-.44.35.16-.31-.8.86-.63.31-.46.44-1.42,1-1.25,1.53-.2,1.48.08.85-.24.93.39,1.81-.15,4-.47,1.53.13,1,.26Z"/><path class="cls-3" d="M109.72,92.48l-.24.47h-.79L108,94l-.7.67-.5,1.09-.43.28-.76,1.53-.71-.75-1-.26-1.53-.13-4,.47-1.81.15-.93-.39-.85.24-1.48-.08-1.53.2.91-1.75.57-1.58.13-1.48.31-.1-.11-.7.29-1.24.06-.75-.26-.52-.31-1.81L93,86.35l-.85-.93L91.93,85l-1-1.24-1.44-.83-.79-.08.33-.59,1.61-1.35.05-.62.61-.31-.18-.26.21-1.39-.25-.91-.85-1,0-1.16-.76-.49.37-1,.8-.47.25-.54,1-1.27.48,0L92,71l-.77-.24L91.07,70l-.72-.41-.25-1.3-.41.18-.4-1.08.39-.65.44-.21L91,66.1l.38-1.22.74-.16,1-.41,1.22.08,1-.55.35-.49.2.21,1.68-.15.88.54.71-.31.14.18-.54.8-.45,1.11-.43.62.53.75-.24.83.3.65-.22,1,.41.26.76,0v.34l-.51,1.06.23.57-.15.67-.56,1.19,0,.6,1,.33,1.55.08.46-.2.51-1,.62-.31.41-.52,1.39,0,1-.1,0,.69.33.57.78.26.21.83-.37.83.58.41-.23.85,0,.86-1,.41-1,1,.51,1.29-.82,2.41L104,85.37l.45.33h.74l.83.75.35.13.08.62.48.6-.07.93.29.83L107,91l.7.67,1.22.16Z"/><path class="cls-3" d="M128.67,49.36l2.37.26.72.93.79.15.37.29.84.2.42.44.14.57-.84,1L133,54.22l-.45.26L132,55.75l-.45.62.28,1.19-.08.39-.58.59.25.65-.49,1.16.47.78-.35.52-.21.69.31.57-.62.47-.12,1.09L129,65.89,127.53,67l-.74-.57-.78.26.33.91-.34.88-.06.8-.35,1.32-.35-.62-.53-.11-1.2-1.19-1.82-2.33,0-1.16-1-.75-.25.78L118,63.56l.21-.36-.07-1,.81-.54,1.44-.52.73-.88.14-1,1-.29.93-.64.41-.62.12-1.4,1.76,1.4L126,57l.79-2.38.68-1.14.82-1-.1-.33-.58.23-.28-.23.24-1.14-.12-.75.95-.31Z"/><path class="cls-3" d="M125.59,70.6l-.08,1.16-.37.73.8.1.5.62-.66.62-.44,1.24-.53.49-.33-1.42.1-.7.35-.8-.55.1-.64-.41L120,72l-.35-.2-.33.26-3.82,1.68L115,74.84,114,75.93l-.39.75,0,.72.43.75.09,2,.84.62,1,.1-.47,1-.56.26-.41,1.5L114,84l-.43,1.32-.5,1-.06.78-.7,1.34-.49.65-.62.49-.31-.26-.42.49-.16.57.39-.31-.8,1.5-.13.93-.78-.64-1.22-.16L107,91l.1-1.45-.29-.83.07-.93-.48-.6-.08-.62-.35-.13-.83-.75h-.74l-.45-.33.45-2.46.82-2.41-.51-1.29,1-1,1-.41,0-.86.23-.85-.58-.41.37-.83-.21-.83-.78-.26-.33-.57,0-.69.6-.73.76.8.89.34.06-.54.64-.26-.1-1,.61-.7,1.62-.08-.11-.67,1.26-1.53.14-1.55.91-.75,1-.23.66.44.62.13.56-.85,1.09-.78.56-.18.37-.62.52-.21,2.43,1.66.25-.78,1,.75,0,1.16,1.82,2.33,1.2,1.19.53.11Z"/><path class="cls-3" d="M86.55,27.84l-1.26.51-.66.49L84,28.35l.78.26.85-2.22-.47-.16.06.47-.46.9-.47-.15-.08-.37L83.68,27l.16-.83-.59.41-.11-.44-.55.42.12.44.54.1.16.65.37-.19.44.47-.81.39L82.83,28l-.74-1.06-.8-.08-.93-.8L80.21,25l-.49-.82-.5-.47.56-.65-.47-.7.18.86-.52.49.69,1.06.26.16.23,1,.33.65.41.26L82,28.43l.51.08-.14.31.49.75-.1.33-.82.44h-.58L81,29.83l-.37-1.48-1.55-2.2-.43-.88-5.43-7.5,0-.54.41-.54.21-1,.47-.29.54.55.06-.83.33.49.12-.83.64-.2.33-.75-.84.36-.33-1L75,13.5l.29.81-1.34.75-.21-.29-.47.26-.21,1.84-.25.05-1-1.48-.08-.67.43-.46-.35,0,.42-.6-.6.29-.25.75L70.74,14l.68-.65-.76.23-.37-.23-.77-.91L69.44,12l.64.08.41-.57L70.76,10l-.16-.78L70,8l-1-1.09L68.7,6l-.39-.28L65.81,2.3,64.26,1.24l.33-.49,0-.54.48.28,1,.23L67,.21l1.42.13L69.07,0l.19.21L68.8.75l0,1.14L68.45,2l-.29-.83-.35-.08-.14.72-.54.39.52.44.68.26v.86l.29-.37.1-1,.45,2.22L70.49,6l.11.64-.85-.93,0,.54.52.52,1.63,1-.41.78v.62l.65.21.64-.73-.13-1.47L73.22,7l.66-.65-.08.55.51-.21.15.49-1,.23-.22.29.47,1,.44.34L75,9l.44.39L75.65,9l-.41-.49L75.36,8l.46.41.45-.1.13.34.88-.11.19.55.45.15-.74.85.43.5.31-.08.33-1.24,1-.11.29.49.68.65.23.65h1.11l.58.28.33.7-.66.1-.1-.46-.43-.13-.42.26.35.46-.43.06.16.38.77-.13,0,.86.55.67.15.75.21-.59.51.2.46-.46-1-.34.13-.31.91.08,1.28-1.11.08.38-.35,1,.29.52h.55l0,1-.91-.88.64,1.39,1.09.55.33.69-.47.06,1.26,1.39-.07.86L86.28,19l.85.7-.38.49.83.62-.08.55.31.72-.33.08-.75-.62-.24-.62-1.35.28-.08-.83L84.84,20l-.11,2,.27.16.27-.49,1.3.15.14.6-.49.57.2.2v1l.92.72.7.31L88,26l.35.39-.22.13Z"/><path class="cls-3" d="M90.12,66.48l-.44.21-.39.65.4,1.08.41-.18.25,1.3.72.41.16.85L92,71l.35.46-.48,0-1,1.27-.25.54-.8.47-.37,1,.76.49,0,1.16.85,1,.25.91-.21,1.39.18.26-.61.31-.05.62L89,82.24l-.33.59h-.43l-.93-.36-1-.15-1.48-1.4L84,79.55,83.52,79l-1.2-.54-2-.34-.68-.23-1.55-1.24-.76-1.06-.29-1.4.24-1.4.35-.7.54-.41,1.2-.52,3-1.89.27-.07,1.55.15,1.07-.57,1.44-1.47.17-.29.31-1.68.82.44,1.43.08Z"/><path class="cls-3" d="M84.11,102.16l-.41.93h-.62l-.54.39h-.76l.72-.26.6-.65.19.21.43-.36-.47-.5.82-.25Zm-5-5.56-.41,1.34h-.27l-1,.88-.33-.08.1-1.24.47.49-.12-.54.14-1,.29.19.37-.34.11.59.86-1.08ZM75,100.76h.35l.29.49,1.07-.57-.16-.49-.45.31,0-.34.77-.59.58-.1.61-.65-.06.72.27.06.47-.73.79-.41.47.1L80,99l-.75-.08-.16.62-.46.11,0,.38-1.55.13.27.31-.4,1,.23.15.43-.77,1.14-.16-.06.57-.46-.18,0,.54-.72.68.62.46-.17.67-1.09.55.31.39,1.63-.91-.54-.23.71,0,.35.18L80.5,103l.58-.33-1.78,0-.9.24,0-.7.41-.37.23-.62.39.08-.08.93.45-.8h.33l-.23-.46.19-.29-.25-.41-.21.54-.57-.65h.39l.18-.62,1.08.78.57-.16.44-.51L82,100l0,.52-.35.16.47.33L83,100l.25.12-.68,1.19-.09.44-.49.44-.15-.77-.41.41.54,1-.7.46-.75.05-.49.29-.85.07-.39.47.93-.08.54-.36.94-.18.42.39,1.11-.34.46-.33-.33.72-.6.85-.79.37.29-.57-.76.18-.89,1.55,0,1.4.64.64,0-.8.6,1.11.19,1L82,111l.74.13-.08.34-1,1.83-1.32,1.4-.39-.49-1.47-.34-.93.21-.51.31-.58-.54-.33.64-1.59,1.07-.72.64-.33,1.3-.35.64-1.39.62-1.24,1.17.15.44-.21.64-.49.6-1,.62-1-.52.1-.64-.45-.34-.42-.85-.59-.26,0-.78-.35-1-.93-.41-.31-.55.36-1.31L66.51,114l.35-1.55.74-1.24.64-.6,2-2.66.78-.18.27-.68.22-1.34.66-.36.52-.52,1-1.53,1-1.21Z"/><path class="cls-3" d="M14.36,195.47l-.16-.13-.77.59.19.18.91-.36-.5.85-.16-.33-.29.41-1.07.24.06-1,.2-.36.73-.44-.19-.1v-1.07l.27-.49.95-.39L14.38,192l.42-.11.33-.82-.21-.65-.47-.67,0-.8.23-.88,1,0,.39-.31.89.59,1,1.27,1.05.93-.22.5-.93,0,.06-.23-.76.15.1.44-.45.75.26,0,.54-.65,1.09.46-.08.42.89-.39.33.39-.1.65-.48.12.62.44-.74,0,.08.36-2,.52-.91,1.06-.66-.29-.51.08-.27-.49-.44.34ZM2,180.44l-.18-.39.3-.23.21.18Zm1.12-6L2,175l-.49,0,1-.47Zm.66,0-.42-.05.17-.39.64,0ZM2.5,172.6l.33.93-.11.59-.41.21L2.1,174l-.32.34-.19-.93-.35-.24-.6.86-.37.2.53-1.37,1.2-.41Zm2.84-5.2-.51,0L4,167l-.26-.5.7-1.37.41,1.25Zm13-13.19-.57.54-.68,1.14-.36,1.73,0,1.79-.2.59.24,1.06.85,1.09.62.23,0,.31L17.89,164l.08.44.58,1.19.21.86.54.26,1.11-.11,1.81-1L23.83,168l.77.16.45-.23,1.06-1.79.47-.26.39.18,1,1.06.21.65-.43.41-.64,2-.58,1.39-.15,1.58.19,1.11.5.47.22.7.13,1.37.6.85.14.91.51,1.24v1l-.23,1.3.35,1.47.45.57-.24,1V186l-.4.75-.51,0-.4-.32-.26.7-1.65-.49-.4-1.27-1.5.42.14-.34-1-.13.33.8-.54.21-1.79-.08.39-.49,1.08.13-.54-.33-.91.07-.64-.28,0,.57.46.64L20,185.9l-.56-.81.66,0,.52-.49.08-.42-.33-.82-.41,1-.21,0-1-1.83-.48-.24-1.15.34,0,.44L16,183l-.14.31-.85.15-1.21-1.06.47-.46-.85-1.09-.2-.44-.64-.05-.5-.31-1.36-.08-.47,1.6-.5,0-.62.37-.64-.16-.6.23-1-.46-1.24-.08-1.44.16-.7-.08-.62-.39-.35-.65.39-.23.68-1L4,178.19l1.2-.88-.23,0-1.28.8-.14.75-.33.47L3,178.76l-.1.49-1,.44.25-.55.08-.82.47-.47.87-.36.14-.36-.68.36-.56-.21.52-.75-.16-.36-.95,1.63-1,.39-.42.46-.26-.44L0,176l.19-.49,2.88-.49.81-.34.47,0,1.18-1,.1-.33-.59.25-.77,0-.95.36-.25-.08.44-.77.7-.36L3,173l0-.95,1.32-.6.85.16-.45-.42,1-.54.06-.36-1.34.82-.85.26-.56.39-.74,0-.16-.49.32-.88.21-1.19.44-.28,1.07.49.47.08-.33-.73-.29.26-.62-.34L3,168.28l.72-1.09.87.67-.25.44.91-.28.45.57-.45.75h.46l.39-.75.57.44.33.85.36.11-.09-.5-.6-.69-1.15-1,.31-.34L7,167l.49.59-.14-.57.14-.54-1,.36-1.05.05L5,166l-.14-.83.27-.44.58.13.47.57.48-.08-1.06-1H5.34l.6-1,.68.73.07.57.31-.6.64,0-1-.49-.33-.5.33-.59,1.55.44-1.48-.78.22-.44.66-.59.44-.08-.23-.31.78-.57.35,0,.42.82-.11.6.29.83.56-.06-.45-.85,0-.62-.4-1,.09-.54.66-.42.47.5-.18,1,.32.29.23-1.06-.58-1.17.4-.28.84.57-.8-.86.23-.39.57-.2.19-.42.6-.54.62-.1,1,.75.37.67-.06-.83-.77-.57L13,154.75l1.05-1.48.91-1-.08-.49,1-.06.16-.62,1.1-.28.78.36.73,1.14Z"/><polygon class="cls-4" points="32.34 145.69 32.46 146.55 31.93 147.79 31.14 149.21 31.24 152.29 31.35 152.86 32.01 153.27 32.4 154.67 33.18 155.01 34.11 156.02 34.88 155.89 35.23 156.04 35.85 156.97 36.63 158.94 37.21 159.74 38.3 159.92 39.64 159.69 39.99 160.13 40.16 161.27 40.63 161.86 41.64 161.22 43.25 159.61 44.04 159.3 45.34 159.02 47.24 159.48 48.87 160 48.06 161.84 46.91 163.1 46.37 164.37 45.91 166.18 46.23 166.88 45.75 167.55 45.83 168.1 45.19 168.82 45.03 169.47 44.7 169.34 44.88 169.93 43.98 170.24 44.39 170.56 44.16 171.12 43.42 171.56 43.42 171.93 44.14 171.95 44.82 172.39 44.64 172.73 43.95 172.99 43.36 173.53 42.76 174.46 44.12 173.76 44.53 173.06 45.01 172.62 45.17 173.89 44.49 174.18 44.27 174.59 42.12 174.9 41.23 175.24 40.49 175.83 39.75 177.1 39.54 178.47 38.92 179.17 38.14 179.58 37.56 180.38 36.16 181.5 35.84 182.01 35.72 183.39 35.12 183.77 34.23 183.64 33.78 183.83 34.77 183.9 34.59 184.45 33.59 185.15 32.87 184.96 31.99 185.59 32.23 185.9 31.3 185.9 31.12 186.26 30.29 186.05 29.7 186.54 29.22 186.59 29.04 185.95 29.04 185.15 29.28 184.11 28.83 183.54 28.48 182.07 28.71 180.77 28.7 179.79 28.19 178.55 28.05 177.64 27.45 176.79 27.32 175.42 27.1 174.72 26.6 174.25 26.41 173.14 26.56 171.56 27.14 170.17 27.78 168.18 28.21 167.76 28 167.11 26.97 166.05 26.58 165.87 26.11 166.13 25.05 167.92 24.6 168.15 23.82 167.99 22.21 165.64 20.41 166.62 19.3 166.73 18.76 166.47 18.55 165.61 17.97 164.42 17.89 163.98 18.2 162.69 18.16 162.38 17.54 162.15 16.69 161.06 16.45 160 16.65 159.41 16.69 157.62 17.05 155.89 17.73 154.75 18.3 154.21 19.61 154 21.65 152.86 22.64 152.5 23.24 151.64 23.63 150.27 24.41 149.52 24.97 148.59 25.96 147.89 27.61 147.66 28.33 147.4 29.14 147.76 31.04 146.47 31.57 145.56 32.34 145.69"/><path class="cls-3" d="M70.37,104.61l1.13-.75.62-.82,1.24-1.12,0,.42.74-.44.87-1.14-.29,1.4-1,1.21-1,1.53-.52.52-.66.36-.86-.6Z"/><path class="cls-3" d="M71.5,105.78l-.22,1.34-.27.68-.78.18-2,2.66-.64.6-.74,1.24L66.51,114l-1.13,1.48L65,116.82l-.51-.12-.72,1.68-.5.62-.74.39-.46,0-.35.36-.57-.85-.38-1.43-1-.31-.29-.49-.76-.13-.25-1.11-.45-.39-.19-.67.13-.75.25-.23.28-1-.16-.77.2-.57.58-.39.68-.21.15-.75.6-.36.55-1.71.52-.39.08-.9.44-.18.62.1.78-.67.12-1.11-.1-.55.8-.31.52-.49-.1-.33-1.08-.5-.86-.72-.46-.88-.29-.16-1,.06-.45.2,0-.67.35-.83-1.2-1.63-.22-1.16h.24l1.22-1,1.12-1.42.93-.65-.19.68.82-.37.29-.39-.16-.33-.62.21.45-.57.52-.29,2.25-.13,1.79.34-.26.13-2.46-.21-.41.52-.35,1.45h-.35l.47.59-.08,1,.33-.21.55.83,1.12.83,1-.62.31-.36.31.23.06.9.48.47-.08,1.14-.69.82h.38L69,102l-.31-.42-.08.55.31.59.2-.18.33,1.22-.29.41.52.41h.68l.27.57Z"/><path class="cls-3" d="M62.55,119.39l-.41,1.26-1,.49L60,122.21l-.83,1.16-.51.41-.27.6-.81.54-.49.08-.54.41-.51.75-.07.44-1.25.62-.4,1.43-2.1.51-.46,0-.8.44-1,.29-.7.67-.58,1-1.51.57-.66,1.22-1.48.88-1.88,1.57-1,1.25-.46-.06-.9.29-1.43.9-1.42.65-1.08,1.17-.3.72-1.24,2-1.65,1.47-1.26,1.55-.77-.12-.53.9-1.9,1.29-.81-.36-.72.26-1.65.23-1,.7-.56.93-.78.75-.39,1.37-.6.86-1,.36-2,1.14-1.32.21.36-1.84-.73-1.14-.78-.36-1.1.28-.37-.31.68-.36,1-1,.74-.93,0-.44.54-.6-.31-.18,1.09-.28.74-.34,1.08-.67.61.57.52.07,1.16-.64.62-.7L25.88,144l.08-.39.68-.46.39-.52,1.16-.8.82-.36.52-.62.47,0,1.16-.75.68,0,.93-.67.78-1.42.38-.21.08-.54.45-.49,1.41-.81.22-.64.56-.7,1-.54.51.18.67-1.17-.36-.05-.74.93.19-.67.62-.7.1-.34.82-.07.71-.91.9-.62,1-.36.4-.39.64-.1.74-.6.58-.83.37-.28.91-1.71.66-.44,1.26-1.73.76-1.68.33-.49.08-.83.52-.86.23-.69.26-2.23.38-1.4.53-.77.29-1.3.47-1.37-.24-.25,0-.73,1.92-.15,1.59-1,.37-.44.43,0,.54-.9.86-2.15,1-.78.15-1.63.6-.25-.29-.6-.13-1.68.15-.67-.17-3.19.35-.15L59.06,97l.52-.41.22,1.16L61,99.36l-.35.83,0,.67.45-.2,1-.06.29.16.46.88.86.72,1.08.5.1.33-.52.49-.8.31.1.55-.12,1.11-.78.67-.62-.1-.44.18-.08.9-.52.39-.55,1.71-.6.36-.15.75-.68.21-.58.39-.2.57.16.77-.28,1-.25.23-.13.75.19.67.45.39.25,1.11.76.13.29.49,1,.31.38,1.43.57.85.35-.36Z"/><path class="cls-3" d="M80,114.16l.39.49-.87.93-.56,1.19,0,.73-.72,1.24-1.61,1.4-.49.67.3.75-.16.23-.52-.44-.64.44-.59.7-.68,1.81-.48.26.23.21-1.36,3-.34.18,0,.77-.42.78-.58.41-.9.31-.15.44-.62.55-1.48.36-1.49,1.19-.72,1.45.12.41-.14,1.55-.15.32.23,1.26.31.88-.08.47.66.2-1,.21-.62.36.66.26.23-.31,1-.08.26.6.19-.83.29.16,0,.82.47-.41.62.34L69,140l.45.83.1,1.06-.26,1.22-.6.13-.08.41h-.36l-.22-.72-.15-1.3h-.31l0,1.68.35.55H67l-.66-.34-.78-.83.19-.49-2.29.52-.89.25,0-.21,2-.71-.52-.34-.53,0-.6-.54-.85.26-.29.52,0,1.11-.27.34-1.27.2-.19.24-1.82.93-2.08,1.58-.66.05-.93.67-.56.15-.35.39-.89.44-1.42,1.43-.74.31-.68,1.39-.07,1.32-.45.62-.06.47-.5.28.23.29.21,3-.37.36.43.41-.08,1.4-.31.75-1.63-.52-1.9-.46-1.3.28-.79.31-1.61,1.61-1,.64-.47-.59L40,160.13l-.35-.44-1.34.23-1.09-.18-.58-.8-.78-2-.62-.93-.35-.15-.77.13-.93-1-.78-.34-.39-1.4-.66-.41-.11-.57-.1-3.08.8-1.42.52-1.24-.12-.86,1.26-1.55,1.65-1.47,1.24-2,.3-.72,1.08-1.17,1.42-.65,1.43-.9.9-.29.46.06,1-1.25L45,134.16l1.48-.88.66-1.22,1.51-.57.58-1,.7-.67,1-.29.8-.44.46,0,2.1-.51.4-1.43,1.25-.62.07-.44.51-.75.54-.41.49-.08.81-.54.27-.6.51-.41.83-1.16,1.22-1.07,1-.49.41-1.26.74-.39.5-.62.72-1.68.51.12.31.55.93.41.35,1,0,.78.59.26.42.85.45.34-.1.64,1,.52,1-.62.49-.6.21-.64-.15-.44,1.24-1.17,1.39-.62.35-.64.33-1.3.72-.64,1.59-1.07.33-.64.58.54.51-.31.93-.21Z"/></g></g></g></svg>