<?xml version="1.0" encoding="utf-8"?>
<!-- Generator: Adobe Illustrator 24.3.0, SVG Export Plug-In . SVG Version: 6.00 Build 0)  -->
<svg version="1.1" id="Layer_1" xmlns="http://www.w3.org/2000/svg" xmlns:xlink="http://www.w3.org/1999/xlink" x="0px" y="0px"
	 viewBox="0 0 1366.8 909.7" style="enable-background:new 0 0 1366.8 909.7;" xml:space="preserve">
<style type="text/css">
	.st0{fill:#FFFFFF;}
</style>
<path class="st0" d="M1366.8,0H549.3c12.2,0.5,23.7,5.1,34.4,10.7c36.2,18.8,66.6,50.7,75.9,89.5c1.9,7.3,2.7,14.9,2.3,22.5
	c-2.1,32-7.5,105.9-59.1,76.9c-14.9-14.4-29.2-25.8-40.8-43.5c-2.5-3.7-4.8-7.5-7.1-11.3c-9.7-16-18.1-32.7-26.8-49.5
	c-9.6-18.7-19.5-38.4-18.6-59.3c0.3-8.1,2.4-16.4,7.5-22.9c6.7-8.4,17.8-12.6,28.8-13H-0.7L0,89.8C284.2,118,573.4-8.5,643.5,577
	c20.1,168.1,23.2,206.7,18.5,332.7h40c-5.1-126.1-4-165,18.6-332.7c70.7-525.2,305.8-480.6,646.2-486.1V0z"/>
</svg>
