<svg xmlns="http://www.w3.org/2000/svg" xmlns:xlink="http://www.w3.org/1999/xlink" viewBox="0 0 134.32 196.92"><defs><style>.cls-1{fill:none;stroke:#000;stroke-linecap:round;stroke-linejoin:round;stroke-width:0.5px;}.cls-2{mask:url(#mask);}.cls-3{fill:#fff;}.cls-4{fill:#ffca80;}.cls-5{filter:url(#luminosity-noclip);}</style><filter id="luminosity-noclip" x="0" y="0" width="134.32" height="196.92" filterUnits="userSpaceOnUse" color-interpolation-filters="sRGB"><feFlood flood-color="#fff" result="bg"/><feBlend in="SourceGraphic" in2="bg"/></filter><mask id="mask" x="0" y="0" width="134.32" height="196.92" maskUnits="userSpaceOnUse"><g class="cls-5"><path class="cls-1" d="M18.3,154.21l.36-1.84-.73-1.14-.78-.36-1.58.41"/><path class="cls-1" d="M48.87,160l-1.63-.52-1.9-.46-1.3.28-.79.31-1.61,1.61-1,.64-.47-.59L40,160.13l-.35-.44-1.34.23-1.09-.18-.58-.8-.78-2-.62-.93-.35-.15-.77.13-.93-1-.78-.34-.39-1.4-.66-.41-.11-.57-.1-3.08.8-1.42.52-1.24-.12-.86,1.26-1.55,1.65-1.47,1.24-2,.3-.72,1.08-1.17,1.42-.65,1.43-.9.9-.29.46.06,1-1.25L45,134.16l1.48-.88.66-1.22,1.51-.57.58-1,.7-.67,1-.29.8-.44.46,0,2.1-.51.4-1.43,1.25-.62.07-.44.51-.75.54-.41.49-.08.81-.54.27-.6.51-.41.83-1.16,1.22-1.07,1-.49.41-1.26.74-.39.5-.62.72-1.68.51.12.31.55.93.41.35,1,0,.78.59.26.42.85.45.34-.1.64,1,.52,1-.62.49-.6.21-.64-.15-.44,1.24-1.17,1.39-.62.35-.64.33-1.3.72-.64,1.59-1.07.33-.64.58.54.51-.31.93-.21,1.47.34.39.49"/><path class="cls-1" d="M63.29,119l-.74.39-.46,0-.35.36-.57-.85-.38-1.43-1-.31-.29-.49-.76-.13-.25-1.11-.45-.39-.19-.67.13-.75.25-.23.28-1-.16-.77.2-.57.58-.39.68-.21.15-.75.6-.36.55-1.71.52-.39.08-.9.44-.18.62.1.78-.67.12-1.11-.1-.55.8-.31.52-.49-.1-.33-1.08-.5-.86-.72-.46-.88-.29-.16-1,.06-.45.2,0-.67.35-.83-1.2-1.63-.28-1.5"/><path class="cls-1" d="M29,187v-1.89l.24-1-.45-.57-.35-1.47.23-1.3v-1l-.51-1.24-.14-.91-.6-.85-.13-1.37-.22-.7-.5-.47-.19-1.11.15-1.58.58-1.39.64-2,.43-.41-.21-.65-1-1.06-.39-.18-.47.26-1.06,1.79-.45.23-.77-.16-1.61-2.35-1.81,1-1.11.11-.54-.26-.21-.86L18,164.42l-.08-.44.31-1.29,0-.31-.62-.23-.85-1.09L16.45,160l.2-.59,0-1.79.36-1.73.68-1.14.57-.54,1.32-.21,2-1.14,1-.36.6-.86.39-1.37.78-.75.56-.93,1-.7,1.65-.23.72-.26.81.36,1.9-1.29.53-.9.77.12.12.86-.52,1.24-.8,1.42.1,3.08.11.57.66.41.39,1.4.78.34.93,1,.77-.13.35.15.62.93.78,2,.58.8,1.09.18,1.34-.23.35.44.17,1.14.47.59,1-.64,1.61-1.61.79-.31,1.3-.28,1.9.46,2,.62"/><polyline class="cls-1" points="80.63 115.01 79.95 114.16 78.48 113.82 77.55 114.03 77.05 114.34 76.46 113.8 76.13 114.44 74.54 115.5 73.82 116.15 73.49 117.44 73.14 118.09 71.75 118.71 70.51 119.88 70.66 120.32 70.45 120.96 69.96 121.56 68.99 122.18 68.02 121.66 68.12 121.02 67.67 120.68 67.25 119.83 66.67 119.57 66.61 118.79 66.26 117.78 65.33 117.37 65.02 116.83 65.38 115.5 66.51 114.03 66.86 112.48 67.6 111.24 68.24 110.64 70.23 107.98 71.01 107.8 71.28 107.12 71.5 105.78 72.16 105.42 72.68 104.9 73.67 103.37 74.66 102.16 74.95 100.76 75.3 100.76"/><path class="cls-1" d="M75,100.44l-.36,1.72-1,1.21-1,1.53-.52.52-.66.36-.86-.6-.44-.92"/><path class="cls-1" d="M106.05,98l-1.16-1.21-1-.26-1.53-.13-4,.47-1.81.15-.93-.39-.85.24-1.48-.08-2.19.29"/><path class="cls-1" d="M110.1,92.8l-1.16-1-1.22-.16L107,91l.1-1.45-.29-.83.07-.93-.48-.6-.08-.62-.35-.13-.83-.75h-.74l-.45-.33.45-2.46.82-2.41-.51-1.29,1-1,1-.41,0-.86.23-.85-.58-.41.37-.83-.21-.83-.78-.26-.33-.57,0-.69.6-.73.76.8.89.34.06-.54.64-.26-.1-1,.61-.7,1.62-.08-.11-.67,1.26-1.53.14-1.55.91-.75,1-.23.66.44.62.13.56-.85,1.09-.78.56-.18.37-.62.52-.21"/><path class="cls-1" d="M125.92,71.19,125.24,70l-.53-.11-1.2-1.19-1.82-2.33,0-1.16-1-.75-.25.78L118,63.56l.21-.36-.07-1,.81-.54,1.44-.52.73-.88.14-1,1-.29.93-.64.41-.62.12-1.4,1.76,1.4L126,57l.79-2.38.68-1.14.82-1-.1-.33-.58.23-.28-.23.3-1,.35-.81.51-.41.36-1"/><path class="cls-1" d="M87.21,65.37l.82.44,1.43.08.66.59-.44.21-.39.65.4,1.08.41-.18.25,1.3.72.41.16.85L92,71l.35.46-.48,0-1,1.27-.25.54-.8.47-.37,1,.76.49,0,1.16.85,1,.25.91-.21,1.39.18.26-.61.31-.05.62L89,82.24l-.55,1"/><polyline class="cls-1" points="103.79 45.41 103.06 45.69 102.98 46.25 102.44 47 102.67 47.44 101.96 47.11 101.7 47.55 101.98 48.01 101.84 48.61 102.02 49.49 102.91 51.58 103.02 52.83 103.41 53.42 103.3 54.09 103.57 55 104.34 55.28 104.46 55.7 105.06 56.19 105.91 56.37 106.59 57.15 106.77 58.75 107.35 59.96 109.12 60.84 109.5 61.75 109.19 62.91 108.94 63.33 108.24 62.97 107.8 63.74 107.08 63.72 107.45 62.68 107.18 62.5 106.61 62.78 105.84 62.86 105.08 62.11 104.52 62.84 104.17 62.91 104.17 63.56 105.8 64.21 105.97 64.44 105.53 65.66 106.2 66.82 105.74 67.1 104.73 66.77 104.52 67.6 105.22 69.02 105.53 69.3 106.34 69.46 106.52 70.86 105.95 71.76 105.35 72.48 104.34 72.59 102.95 72.56 102.54 73.08 101.92 73.39 101.41 74.42 100.95 74.63 99.39 74.56 98.41 74.22 98.37 73.62 98.93 72.43 99.08 71.76 98.85 71.19 99.36 70.13 99.36 69.8 98.6 69.82 98.19 69.56 98.41 68.58 98.11 67.93 98.35 67.1 97.82 66.35 98.25 65.73 98.7 64.62 99.24 63.82 99.1 63.64 98.39 63.95 97.51 63.41 95.83 63.56 95.63 63.35 95.28 63.84 94.33 64.39 93.11 64.31 92.1 64.72 91.36 64.88 90.97 66.09 90.12 66.48 89.46 65.89 88.03 65.81 86.77 65.13"/><polyline class="cls-1" points="87.48 44.12 88.94 43.9 89.66 43.41 90.68 43.1 93.34 42.5 94.45 42.35 94.55 41.29 95.09 39.92 95.48 40.17 96.41 39.7"/><path class="cls-1" d="M88.6,26.25l-.48.29-2.18,1.8"/></g></mask></defs><g id="Layer_2" data-name="Layer 2"><g id="artwork"><g class="cls-2"><polygon class="cls-3" points="118.02 63.56 117.5 63.77 117.13 64.39 116.57 64.57 115.48 65.34 114.92 66.2 114.3 66.07 113.64 65.63 112.63 65.86 111.72 66.61 111.58 68.17 110.32 69.69 110.44 70.36 108.81 70.44 108.2 71.14 108.3 72.1 107.66 72.36 107.6 72.9 106.71 72.56 105.95 71.76 106.52 70.86 106.34 69.46 105.53 69.3 105.22 69.02 104.52 67.6 104.73 66.77 105.74 67.1 106.2 66.82 105.53 65.66 105.97 64.44 105.8 64.21 104.17 63.56 104.17 62.91 104.52 62.84 105.08 62.11 105.84 62.86 106.61 62.78 107.18 62.5 107.45 62.68 107.08 63.72 107.8 63.74 108.24 62.97 108.94 63.33 109.19 62.91 109.5 61.75 109.12 60.84 107.35 59.96 106.77 58.75 106.59 57.15 105.91 56.37 105.06 56.19 104.46 55.7 104.34 55.28 103.57 55 103.3 54.09 103.41 53.42 103.02 52.83 102.91 51.58 102.02 49.49 101.84 48.61 101.98 48.01 101.7 47.55 101.96 47.11 102.67 47.44 102.44 47 102.98 46.25 103.06 45.69 103.55 45.5 104.05 46.9 105.04 47.83 105.93 49.46 105.37 49.02 104.63 48.79 105.14 48.61 104.15 47.75 103.3 47.81 103.51 48.66 103.9 48.76 103.88 49.49 104.67 49.51 104.92 50.16 105.45 50.39 105.76 50.06 106.2 50.31 106.26 50.91 106.79 50.86 106.34 49.44 106.73 49.59 107.12 50.39 109.17 51.48 110.01 51.69 112.3 53.52 114.22 54.25 115.01 54.4 115.64 54.84 116.74 55.05 117.17 55.31 116.41 55.41 117.26 55.95 117.34 55.33 117.89 55.54 118.66 55.59 120.76 55.41 122.21 54.53 122.78 53.94 123.12 52.95 123.63 52.7 124.54 51.04 126.21 50.7 126.67 50.11 127.63 49.9 127.66 49.18 128.67 49.36 128.38 49.98 127.43 50.29 127.55 51.04 127.31 52.18 127.59 52.41 128.17 52.18 128.26 52.51 127.45 53.5 126.77 54.63 125.98 57.02 125.45 57.64 123.69 56.24 123.57 57.64 123.16 58.26 122.23 58.9 121.28 59.19 121.14 60.22 120.41 61.1 118.97 61.62 118.16 62.16 118.23 63.2 118.02 63.56"/><path class="cls-3" d="M94.49,36.27V37l-.76.1L93,36.86l-.29-.41-.27.18.1-.62.7,0,.34.31,1-.75.29.41Zm3.39-9.75.51.56.52.21-.37,1,.74,1.07-.52.62-.2-.65-.48.15-.2-.77-.41.08-1-.81.45-.05.14-.83-.55-.51.66-.18L97,26.13l.1-.55.54.11Zm-9.54-.11,1.18,1.71.81.52-.23.85.89.29-1.57,0L89.79,31l-.06.75-.42-1L89,30.63l.21.67-.31.29.41.41-.43.6.14.8.33.28h1.28l-.92.52L89,34l.42.64.68,2.28-.58-.26-.33.16-.47-.91-.79.34-.1.33h.64l-.41.34.3.31.05.93.24,0,.35-.75.46-.24,1.3.16.27.18-.37.85.18.6.21-.18.35-1.66.43,1.09,0,.39.74-.18-.24-.63.92.11,0,1,.35.33.75-.41.84,0,.5.37.49.67-.66.33-.39-.25-.55,1.37-.09,1.06-1.11.15-2.66.6-1,.31-.72.49-.7.1-.74-2.14-.58-1.4,1-.08.29.21-.18.41.59,1.19,0,.49.36.57,0-1,.6-.18-.82-.23.84-.65,0,.36.53-.59.56-.24.6.62.08-.77-1-.39-.29-.72-.31.36-.17-.49.58-.65-1.57-.1-.72.33-.25.73-.51-.13-.72.59-.36-.39L85.64,38l-.45-2.12-.6-1.16L83,32.57l-.35-.7-.07-.7.34-.41-.09.85L83.1,31l.35.05.68,1.25.36.18-.07.44.62.26-.47.15.08.54.49.21v-.41l.35.72.26-.28.21-1,0-1-.25-.05v-.78L86,31l-.33-.52L86,30l-.39-.23-.54.46-.72.05-.64-.36.19-.75.49.16.76-.11,1.55-1-.14-.38,1.57-1.3Z"/><path class="cls-3" d="M88,65.81l-.82-.44.29-1.09.08-2.61.54-1.52.26-1.09.23-1.76-.16-1,.82,0,.79.75L90,56.6l1-.08-.46-.85L90,55.62l-.53.36.08-.62,1.07-.85-.39-.6-.47.8-.35-.51.12-1.45.33-.7.56-.18,1.32-.11-.33-.31.25-.72-.65.59-.76-.18-.7-3-.66-1.71-.12-.83.74-.44L90,43.93l-.62.41-.35.62-.42-.15L88.24,44l.7-.1.72-.49,1-.31,2.66-.6,1.11-.15.09-1.06.55-1.37.39.25.66-.33,0,.77-.17,1,.54,1.19,1,.31,1-.36.39-.29.16.88.36.21-.31-1.66-.23-.67,0-.8-.37-1.27-.74-.88-.31-.62.8,0,.19-.24-.73-.15.5-.29-.33-.13.82-.33-.32-.16-.31-1.08.26-.78-.7-1L97,33.24l-.35-.64.1-.81h.93l.77.88.31-.36.35.7-.31.67.74.31.08,1,.31.34-.18.49.24.47.5-.36,1.32-.47.72.18-.18.49-.35,0-.29.49-.62.37-.39.56.37.7.29-.33-.07-.47.91-.15.6,1.52,0,1.48.33.88-.43.85.39.15.06.81-.41-.52.14,1,.46.8.16,1.32-.49.18-.08.57-.54.75.23.44-.71-.33-.26.44L102,48l-.14.6.17.88.9,2.09.11,1.24.39.6-.11.67.27.91.77.28.12.42.6.49.85.18.68.77.18,1.61.58,1.21,1.77.88.38.91-.31,1.16-.25.42-.7-.36-.44.77-.72,0,.37-1-.27-.18-.57.28-.77.08-.76-.75-.56.73-.35.07v.65l1.63.65.17.23-.44,1.22.68,1.16-.47.28-1-.33-.21.83.7,1.42.31.28.81.16.18,1.4-.57.9-.6.73-1,.1-1.39,0-.41.52-.62.31-.51,1-.46.2-1.55-.08-1-.33,0-.6.56-1.19.15-.67-.23-.57.51-1.06v-.34l-.76,0-.41-.26.22-1-.3-.65.24-.83-.53-.75.43-.62.45-1.11.54-.8-.14-.18-.71.31-.88-.54-1.68.15-.2-.21-.35.49-1,.55-1.22-.08-1,.41-.74.16L91,66.1l-.86.38-.66-.59Z"/><path class="cls-3" d="M89.77,98.43l-.21-.21.52-.72.35.08Zm15.83-.85-.83,2-.56.21-.6.93-.66,1.94-1.21,1.55L100,105.6l-.43.44-1.26.7-2.52,1.91L95,109l-.58.54-1.22,0L92.78,108l.21-1.14-.17-.26L91.48,106l-.58,0-.84.78-.4,0-.39-.31.13-.41-.09-.91.35-.9-.06-.73-.88.06-.48.69.68.31-.37.57-.68.16L86.82,105l-.4-.46,0-.83.72-.18.93-1,.29-.62.68-.44.35.16-.31-.8.86-.63.31-.46.44-1.42,1-1.25,1.53-.2,1.48.08.85-.24.93.39,1.81-.15,4-.47,1.53.13,1,.26Z"/><polygon class="cls-3" points="109.72 92.48 109.48 92.95 108.69 92.95 107.99 94.01 107.29 94.68 106.79 95.77 106.36 96.05 105.6 97.58 104.89 96.83 103.86 96.57 102.33 96.44 98.33 96.91 96.52 97.06 95.59 96.67 94.74 96.91 93.26 96.83 91.73 97.03 92.64 95.28 93.21 93.7 93.34 92.22 93.65 92.12 93.54 91.42 93.83 90.18 93.89 89.43 93.63 88.91 93.32 87.1 93.01 86.35 92.16 85.42 91.93 84.98 90.92 83.74 89.48 82.91 88.69 82.83 89.02 82.24 90.63 80.89 90.68 80.27 91.28 79.96 91.11 79.7 91.32 78.31 91.07 77.4 90.22 76.44 90.2 75.28 89.44 74.79 89.81 73.83 90.61 73.36 90.86 72.82 91.87 71.55 92.35 71.5 92 71.04 91.23 70.8 91.07 69.95 90.35 69.54 90.1 68.24 89.69 68.42 89.29 67.34 89.67 66.69 90.12 66.48 90.97 66.09 91.36 64.88 92.1 64.72 93.11 64.31 94.33 64.39 95.28 63.84 95.63 63.35 95.83 63.56 97.51 63.41 98.39 63.95 99.1 63.64 99.24 63.82 98.7 64.62 98.25 65.73 97.82 66.35 98.35 67.1 98.11 67.93 98.41 68.58 98.19 69.56 98.6 69.82 99.36 69.8 99.36 70.13 98.85 71.19 99.08 71.76 98.93 72.43 98.37 73.62 98.41 74.22 99.39 74.56 100.95 74.63 101.41 74.42 101.92 73.39 102.54 73.08 102.95 72.56 104.34 72.59 105.35 72.48 105.37 73.18 105.7 73.75 106.48 74.01 106.69 74.84 106.32 75.67 106.9 76.08 106.67 76.94 106.69 77.79 105.7 78.2 104.73 79.21 105.23 80.5 104.42 82.91 103.97 85.37 104.42 85.7 105.16 85.7 105.99 86.45 106.34 86.58 106.42 87.2 106.9 87.8 106.83 88.73 107.12 89.56 107.02 91.01 107.72 91.68 108.94 91.83 109.72 92.48"/><polygon class="cls-3" points="128.67 49.36 131.04 49.62 131.76 50.55 132.55 50.7 132.92 50.99 133.76 51.2 134.18 51.63 134.32 52.2 133.48 53.16 133.02 54.22 132.57 54.48 131.99 55.75 131.54 56.37 131.82 57.56 131.74 57.95 131.16 58.54 131.41 59.19 130.92 60.35 131.39 61.13 131.04 61.65 130.83 62.34 131.14 62.91 130.52 63.38 130.4 64.47 129 65.89 127.53 67 126.79 66.43 126.02 66.69 126.34 67.6 126 68.47 125.94 69.28 125.59 70.6 125.24 69.98 124.72 69.87 123.51 68.68 121.69 66.35 121.71 65.19 120.7 64.44 120.45 65.22 118.02 63.56 118.23 63.2 118.16 62.16 118.97 61.62 120.41 61.1 121.14 60.22 121.28 59.19 122.23 58.9 123.16 58.26 123.57 57.64 123.69 56.24 125.45 57.64 125.98 57.02 126.77 54.63 127.45 53.5 128.26 52.51 128.17 52.18 127.59 52.41 127.31 52.18 127.55 51.04 127.43 50.29 128.38 49.98 128.67 49.36"/><polygon class="cls-3" points="125.59 70.6 125.51 71.76 125.14 72.48 125.94 72.59 126.44 73.21 125.78 73.83 125.34 75.07 124.81 75.56 124.48 74.14 124.58 73.44 124.93 72.64 124.39 72.74 123.75 72.33 120.04 71.99 119.69 71.79 119.36 72.05 115.54 73.73 115.01 74.84 113.95 75.93 113.56 76.68 113.52 77.4 113.95 78.15 114.04 80.12 114.88 80.74 115.85 80.84 115.38 81.82 114.82 82.08 114.41 83.58 113.95 84 113.52 85.32 113.02 86.3 112.96 87.08 112.26 88.42 111.77 89.07 111.15 89.56 110.84 89.3 110.42 89.79 110.26 90.36 110.65 90.05 109.85 91.55 109.72 92.48 108.94 91.83 107.72 91.68 107.02 91.01 107.12 89.56 106.83 88.73 106.9 87.8 106.42 87.2 106.34 86.58 105.99 86.45 105.16 85.7 104.42 85.7 103.97 85.37 104.42 82.91 105.23 80.5 104.73 79.21 105.7 78.2 106.69 77.79 106.67 76.94 106.9 76.08 106.32 75.67 106.69 74.84 106.48 74.01 105.7 73.75 105.37 73.18 105.35 72.48 105.95 71.76 106.71 72.56 107.6 72.9 107.66 72.36 108.3 72.1 108.2 71.14 108.81 70.44 110.44 70.36 110.32 69.69 111.58 68.17 111.72 66.61 112.63 65.86 113.64 65.63 114.3 66.07 114.92 66.2 115.48 65.34 116.57 64.57 117.13 64.39 117.5 63.77 118.02 63.56 120.45 65.22 120.7 64.44 121.71 65.19 121.69 66.35 123.51 68.68 124.72 69.87 125.24 69.98 125.59 70.6"/><polygon class="cls-3" points="86.55 27.84 85.29 28.35 84.63 28.84 83.99 28.35 84.77 28.61 85.62 26.39 85.15 26.23 85.21 26.7 84.75 27.6 84.28 27.45 84.2 27.09 83.68 26.96 83.83 26.13 83.25 26.54 83.14 26.1 82.59 26.52 82.71 26.96 83.25 27.06 83.41 27.71 83.78 27.52 84.22 27.99 83.41 28.38 82.83 27.99 82.09 26.93 81.29 26.85 80.36 26.05 80.21 24.96 79.72 24.14 79.22 23.67 79.78 23.02 79.31 22.32 79.49 23.18 78.97 23.67 79.66 24.73 79.92 24.89 80.15 25.89 80.48 26.54 80.89 26.8 81.95 28.43 82.46 28.51 82.32 28.82 82.81 29.57 82.71 29.91 81.89 30.34 81.31 30.34 81.02 29.83 80.65 28.35 79.1 26.15 78.67 25.27 73.24 17.77 73.26 17.23 73.67 16.69 73.88 15.73 74.35 15.44 74.89 15.99 74.95 15.16 75.28 15.65 75.39 14.82 76.04 14.62 76.36 13.87 75.53 14.23 75.2 13.27 74.99 13.5 75.28 14.31 73.94 15.06 73.73 14.77 73.26 15.03 73.05 16.87 72.8 16.92 71.75 15.44 71.67 14.77 72.1 14.31 71.75 14.28 72.17 13.69 71.57 13.97 71.32 14.72 70.74 13.99 71.42 13.35 70.66 13.58 70.29 13.35 69.52 12.44 69.44 11.95 70.08 12.03 70.49 11.46 70.76 9.98 70.6 9.21 70.04 8.02 69.07 6.93 68.7 5.95 68.31 5.67 65.81 2.3 64.26 1.24 64.59 0.75 64.61 0.21 65.09 0.49 66.12 0.72 67.03 0.21 68.45 0.34 69.07 0 69.26 0.21 68.8 0.75 68.76 1.89 68.45 1.97 68.16 1.14 67.81 1.06 67.67 1.78 67.13 2.17 67.65 2.61 68.33 2.87 68.33 3.73 68.62 3.36 68.72 2.33 69.17 4.55 70.49 5.98 70.6 6.62 69.75 5.69 69.79 6.23 70.31 6.75 71.94 7.74 71.53 8.51 71.52 9.13 72.17 9.34 72.81 8.61 72.68 7.14 73.22 6.96 73.88 6.31 73.8 6.86 74.31 6.65 74.46 7.14 73.45 7.37 73.24 7.66 73.71 8.64 74.15 8.98 75.03 8.95 75.47 9.34 75.65 9.03 75.24 8.54 75.36 8.02 75.82 8.43 76.27 8.33 76.4 8.67 77.28 8.56 77.47 9.11 77.92 9.26 77.18 10.12 77.61 10.61 77.92 10.53 78.25 9.29 79.22 9.18 79.51 9.68 80.19 10.32 80.42 10.97 81.53 10.97 82.11 11.25 82.44 11.95 81.78 12.05 81.68 11.59 81.25 11.46 80.83 11.72 81.18 12.18 80.75 12.24 80.91 12.62 81.68 12.49 81.66 13.35 82.2 14.02 82.36 14.77 82.57 14.18 83.08 14.38 83.54 13.92 82.53 13.58 82.67 13.27 83.58 13.35 84.86 12.24 84.94 12.62 84.59 13.58 84.88 14.1 85.43 14.1 85.48 15.06 84.57 14.18 85.21 15.57 86.3 16.12 86.63 16.82 86.16 16.87 87.42 18.26 87.35 19.12 86.28 18.96 87.13 19.66 86.75 20.15 87.58 20.77 87.5 21.32 87.81 22.04 87.48 22.12 86.73 21.5 86.49 20.88 85.14 21.16 85.06 20.33 84.84 20 84.73 21.96 85 22.12 85.27 21.63 86.57 21.78 86.71 22.38 86.22 22.95 86.42 23.15 86.44 24.19 87.35 24.91 88.05 25.22 87.99 26.02 88.34 26.41 88.12 26.54 86.55 27.84"/><polygon class="cls-3" points="90.12 66.48 89.67 66.69 89.29 67.34 89.69 68.42 90.1 68.24 90.35 69.54 91.07 69.95 91.23 70.8 92 71.04 92.35 71.5 91.87 71.55 90.86 72.82 90.61 73.36 89.81 73.83 89.44 74.79 90.2 75.28 90.22 76.44 91.07 77.4 91.32 78.31 91.11 79.7 91.28 79.96 90.68 80.27 90.63 80.89 89.02 82.24 88.69 82.83 88.26 82.83 87.33 82.47 86.34 82.31 84.86 80.92 83.99 79.55 83.53 79.03 82.32 78.49 80.36 78.15 79.68 77.92 78.13 76.68 77.37 75.61 77.08 74.22 77.32 72.82 77.67 72.12 78.21 71.71 79.41 71.19 82.4 69.3 82.67 69.23 84.22 69.38 85.29 68.81 86.73 67.34 86.9 67.05 87.21 65.37 88.03 65.81 89.46 65.89 90.12 66.48"/><path class="cls-3" d="M84.11,102.16l-.41.93h-.62l-.54.39h-.76l.72-.26.6-.65.19.21.43-.36-.47-.5.82-.25Zm-5-5.56-.41,1.34h-.27l-1,.88-.33-.08.1-1.24.47.49-.12-.54.14-1,.29.19.37-.34.11.59.86-1.08ZM75,100.76h.35l.29.49,1.07-.57-.16-.49-.45.31,0-.34.77-.59.58-.1.61-.65-.06.72.27.06.47-.73.79-.41.47.1L80,99l-.75-.08-.16.62-.46.11,0,.38-1.55.13.27.31-.4,1,.23.15.43-.77,1.14-.16-.06.57-.46-.18,0,.54-.72.68.62.46-.17.67-1.09.55.31.39,1.63-.91-.54-.23.71,0,.35.18L80.5,103l.58-.33-1.78,0-.9.24,0-.7.41-.37.23-.62.39.08-.08.93.45-.8h.33l-.23-.46.19-.29-.25-.41-.21.54-.57-.65h.39l.18-.62,1.08.78.57-.16.44-.51L82,100l0,.52-.35.16.47.33L83,100l.25.12-.68,1.19-.09.44-.49.44-.15-.77-.41.41.54,1-.7.46-.75.05-.49.29-.85.07-.39.47.93-.08.54-.36.94-.18.42.39,1.11-.34.46-.33-.33.72-.6.85-.79.37.29-.57-.76.18-.89,1.55,0,1.4.64.64,0-.8.6,1.11.19,1L82,111l.74.13-.08.34-1,1.83-1.32,1.4-.39-.49-1.47-.34-.93.21-.51.31-.58-.54-.33.64-1.59,1.07-.72.64-.33,1.3-.35.64-1.39.62-1.24,1.17.15.44-.21.64-.49.6-1,.62-1-.52.1-.64-.45-.34-.42-.85-.59-.26,0-.78-.35-1-.93-.41-.31-.55.36-1.31L66.51,114l.35-1.55.74-1.24.64-.6,2-2.66.78-.18.27-.68.22-1.34.66-.36.52-.52,1-1.53,1-1.21Z"/><path class="cls-3" d="M14.36,195.47l-.16-.13-.77.59.19.18.91-.36-.5.85-.16-.33-.29.41-1.07.24.06-1,.2-.36.73-.44-.19-.1v-1.07l.27-.49.95-.39L14.38,192l.42-.11.33-.82-.21-.65-.47-.67,0-.8.23-.88,1,0,.39-.31.89.59,1,1.27,1.05.93-.22.5-.93,0,.06-.23-.76.15.1.44-.45.75.26,0,.54-.65,1.09.46-.08.42.89-.39.33.39-.1.65-.48.12.62.44-.74,0,.08.36-2,.52-.91,1.06-.66-.29-.51.08-.27-.49-.44.34ZM2,180.44l-.18-.39.3-.23.21.18Zm1.12-6L2,175l-.49,0,1-.47Zm.66,0-.42-.05.17-.39.64,0ZM2.5,172.6l.33.93-.11.59-.41.21L2.1,174l-.32.34-.19-.93-.35-.24-.6.86-.37.2.53-1.37,1.2-.41Zm2.84-5.2-.51,0L4,167l-.26-.5.7-1.37.41,1.25Zm13-13.19-.57.54-.68,1.14-.36,1.73,0,1.79-.2.59.24,1.06.85,1.09.62.23,0,.31L17.89,164l.08.44.58,1.19.21.86.54.26,1.11-.11,1.81-1L23.83,168l.77.16.45-.23,1.06-1.79.47-.26.39.18,1,1.06.21.65-.43.41-.64,2-.58,1.39-.15,1.58.19,1.11.5.47.22.7.13,1.37.6.85.14.91.51,1.24v1l-.23,1.3.35,1.47.45.57-.24,1V186l-.4.75-.51,0-.4-.32-.26.7-1.65-.49-.4-1.27-1.5.42.14-.34-1-.13.33.8-.54.21-1.79-.08.39-.49,1.08.13-.54-.33-.91.07-.64-.28,0,.57.46.64L20,185.9l-.56-.81.66,0,.52-.49.08-.42-.33-.82-.41,1-.21,0-1-1.83-.48-.24-1.15.34,0,.44L16,183l-.14.31-.85.15-1.21-1.06.47-.46-.85-1.09-.2-.44-.64-.05-.5-.31-1.36-.08-.47,1.6-.5,0-.62.37-.64-.16-.6.23-1-.46-1.24-.08-1.44.16-.7-.08-.62-.39-.35-.65.39-.23.68-1L4,178.19l1.2-.88-.23,0-1.28.8-.14.75-.33.47L3,178.76l-.1.49-1,.44.25-.55.08-.82.47-.47.87-.36.14-.36-.68.36-.56-.21.52-.75-.16-.36-.95,1.63-1,.39-.42.46-.26-.44L0,176l.19-.49,2.88-.49.81-.34.47,0,1.18-1,.1-.33-.59.25-.77,0-.95.36-.25-.08.44-.77.7-.36L3,173l0-.95,1.32-.6.85.16-.45-.42,1-.54.06-.36-1.34.82-.85.26-.56.39-.74,0-.16-.49.32-.88.21-1.19.44-.28,1.07.49.47.08-.33-.73-.29.26-.62-.34L3,168.28l.72-1.09.87.67-.25.44.91-.28.45.57-.45.75h.46l.39-.75.57.44.33.85.36.11-.09-.5-.6-.69-1.15-1,.31-.34L7,167l.49.59-.14-.57.14-.54-1,.36-1.05.05L5,166l-.14-.83.27-.44.58.13.47.57.48-.08-1.06-1H5.34l.6-1,.68.73.07.57.31-.6.64,0-1-.49-.33-.5.33-.59,1.55.44-1.48-.78.22-.44.66-.59.44-.08-.23-.31.78-.57.35,0,.42.82-.11.6.29.83.56-.06-.45-.85,0-.62-.4-1,.09-.54.66-.42.47.5-.18,1,.32.29.23-1.06-.58-1.17.4-.28.84.57-.8-.86.23-.39.57-.2.19-.42.6-.54.62-.1,1,.75.37.67-.06-.83-.77-.57L13,154.75l1.05-1.48.91-1-.08-.49,1-.06.16-.62,1.1-.28.78.36.73,1.14Z"/><polygon class="cls-4" points="32.34 145.69 32.46 146.55 31.93 147.79 31.14 149.21 31.24 152.29 31.35 152.86 32.01 153.27 32.4 154.67 33.18 155.01 34.11 156.02 34.88 155.89 35.23 156.04 35.85 156.97 36.63 158.94 37.21 159.74 38.3 159.92 39.64 159.69 39.99 160.13 40.16 161.27 40.63 161.86 41.64 161.22 43.25 159.61 44.04 159.3 45.34 159.02 47.24 159.48 48.87 160 48.06 161.84 46.91 163.1 46.37 164.37 45.91 166.18 46.23 166.88 45.75 167.55 45.83 168.1 45.19 168.82 45.03 169.47 44.7 169.34 44.88 169.93 43.98 170.24 44.39 170.56 44.16 171.12 43.42 171.56 43.42 171.93 44.14 171.95 44.82 172.39 44.64 172.73 43.95 172.99 43.36 173.53 42.76 174.46 44.12 173.76 44.53 173.06 45.01 172.62 45.17 173.89 44.49 174.18 44.27 174.59 42.12 174.9 41.23 175.24 40.49 175.83 39.75 177.1 39.54 178.47 38.92 179.17 38.14 179.58 37.56 180.38 36.16 181.5 35.84 182.01 35.72 183.39 35.12 183.77 34.23 183.64 33.78 183.83 34.77 183.9 34.59 184.45 33.59 185.15 32.87 184.96 31.99 185.59 32.23 185.9 31.3 185.9 31.12 186.26 30.29 186.05 29.7 186.54 29.22 186.59 29.04 185.95 29.04 185.15 29.28 184.11 28.83 183.54 28.48 182.07 28.71 180.77 28.7 179.79 28.19 178.55 28.05 177.64 27.45 176.79 27.32 175.42 27.1 174.72 26.6 174.25 26.41 173.14 26.56 171.56 27.14 170.17 27.78 168.18 28.21 167.76 28 167.11 26.97 166.05 26.58 165.87 26.11 166.13 25.05 167.92 24.6 168.15 23.82 167.99 22.21 165.64 20.41 166.62 19.3 166.73 18.76 166.47 18.55 165.61 17.97 164.42 17.89 163.98 18.2 162.69 18.16 162.38 17.54 162.15 16.69 161.06 16.45 160 16.65 159.41 16.69 157.62 17.05 155.89 17.73 154.75 18.3 154.21 19.61 154 21.65 152.86 22.64 152.5 23.24 151.64 23.63 150.27 24.41 149.52 24.97 148.59 25.96 147.89 27.61 147.66 28.33 147.4 29.14 147.76 31.04 146.47 31.57 145.56 32.34 145.69"/><polygon class="cls-3" points="70.37 104.61 71.5 103.86 72.12 103.04 73.36 101.92 73.34 102.34 74.08 101.9 74.95 100.76 74.66 102.16 73.67 103.37 72.68 104.9 72.16 105.42 71.5 105.78 70.64 105.18 70.37 104.61"/><polygon class="cls-3" points="71.5 105.78 71.28 107.12 71.01 107.8 70.23 107.98 68.24 110.64 67.6 111.24 66.86 112.48 66.51 114.03 65.38 115.5 65.02 116.83 64.51 116.69 63.79 118.38 63.29 119 62.55 119.39 62.09 119.44 61.74 119.8 61.17 118.95 60.79 117.52 59.78 117.21 59.49 116.72 58.73 116.59 58.48 115.48 58.03 115.09 57.84 114.42 57.97 113.67 58.23 113.44 58.5 112.45 58.34 111.68 58.53 111.11 59.12 110.72 59.8 110.51 59.95 109.76 60.55 109.4 61.1 107.69 61.62 107.31 61.7 106.4 62.14 106.22 62.77 106.32 63.54 105.65 63.66 104.54 63.56 103.99 64.36 103.68 64.88 103.19 64.78 102.86 63.7 102.36 62.84 101.64 62.38 100.76 62.09 100.61 61.08 100.66 60.63 100.86 60.65 100.19 61 99.36 59.8 97.73 59.58 96.57 59.82 96.57 61.04 95.61 62.16 94.19 63.09 93.54 62.9 94.22 63.72 93.85 64.01 93.47 63.85 93.13 63.23 93.34 63.68 92.77 64.2 92.48 66.45 92.35 68.24 92.69 67.98 92.82 65.52 92.61 65.11 93.13 64.76 94.58 64.41 94.58 64.88 95.17 64.8 96.13 65.13 95.92 65.67 96.75 66.8 97.58 67.85 96.96 68.16 96.59 68.47 96.83 68.53 97.73 69.01 98.2 68.94 99.34 68.24 100.17 68.62 100.17 69.01 102.03 68.7 101.61 68.62 102.16 68.94 102.75 69.13 102.57 69.46 103.79 69.17 104.2 69.69 104.61 70.37 104.61 70.64 105.18 71.5 105.78"/><polygon class="cls-3" points="62.55 119.39 62.14 120.65 61.19 121.14 59.97 122.2 59.14 123.37 58.63 123.78 58.36 124.38 57.55 124.92 57.06 125 56.52 125.41 56.01 126.16 55.94 126.6 54.69 127.22 54.29 128.65 52.19 129.16 51.73 129.11 50.93 129.55 49.92 129.84 49.22 130.51 48.64 131.49 47.13 132.06 46.47 133.28 44.99 134.16 43.11 135.74 42.08 136.98 41.62 136.93 40.72 137.21 39.29 138.12 37.87 138.76 36.79 139.93 36.49 140.65 35.25 142.67 33.6 144.14 32.34 145.69 31.57 145.56 31.04 146.47 29.14 147.76 28.33 147.4 27.61 147.66 25.96 147.89 24.97 148.59 24.41 149.52 23.63 150.27 23.24 151.64 22.64 152.5 21.65 152.86 19.61 154 18.3 154.21 18.66 152.37 17.93 151.23 17.15 150.87 16.05 151.15 15.68 150.84 16.36 150.48 17.36 149.5 18.1 148.57 18.12 148.13 18.66 147.53 18.35 147.35 19.44 147.07 20.18 146.73 21.26 146.06 21.87 146.63 22.39 146.7 23.55 146.06 24.18 145.36 25.88 144.01 25.96 143.63 26.64 143.16 27.03 142.64 28.19 141.84 29.01 141.48 29.53 140.86 30 140.83 31.16 140.08 31.84 140.13 32.77 139.46 33.55 138.04 33.93 137.83 34.01 137.29 34.46 136.8 35.87 135.99 36.09 135.35 36.65 134.65 37.6 134.1 38.1 134.29 38.78 133.12 38.42 133.07 37.68 134 37.87 133.33 38.49 132.63 38.59 132.29 39.41 132.22 40.12 131.31 41.02 130.69 41.98 130.33 42.39 129.94 43.03 129.84 43.77 129.24 44.35 128.41 44.72 128.13 45.63 126.42 46.29 125.98 47.55 124.25 48.31 122.57 48.64 122.08 48.72 121.25 49.24 120.39 49.48 119.7 49.73 117.47 50.12 116.07 50.64 115.3 50.93 114 51.4 112.63 51.16 112.38 51.14 111.65 53.06 111.5 54.66 110.54 55.02 110.1 55.45 110.07 55.99 109.17 56.85 107.02 57.84 106.24 57.99 104.61 58.59 104.36 58.3 103.76 58.17 102.08 58.32 101.41 58.15 98.22 58.5 98.07 59.06 96.98 59.58 96.57 59.8 97.73 61 99.36 60.65 100.19 60.63 100.86 61.08 100.66 62.09 100.61 62.38 100.76 62.84 101.64 63.7 102.36 64.78 102.86 64.88 103.19 64.36 103.68 63.56 103.99 63.66 104.54 63.54 105.65 62.77 106.32 62.14 106.22 61.7 106.4 61.62 107.31 61.1 107.69 60.55 109.4 59.95 109.76 59.8 110.51 59.12 110.72 58.53 111.11 58.34 111.68 58.5 112.45 58.23 113.44 57.97 113.67 57.84 114.42 58.03 115.09 58.48 115.48 58.73 116.59 59.49 116.72 59.78 117.21 60.79 117.52 61.17 118.95 61.74 119.8 62.09 119.44 62.55 119.39"/><polygon class="cls-3" points="79.95 114.16 80.34 114.65 79.47 115.58 78.91 116.77 78.89 117.5 78.17 118.74 76.56 120.14 76.07 120.81 76.36 121.56 76.21 121.79 75.69 121.35 75.05 121.79 74.46 122.49 73.78 124.3 73.3 124.56 73.53 124.77 72.17 127.77 71.83 127.95 71.86 128.72 71.44 129.5 70.86 129.91 69.96 130.22 69.81 130.66 69.19 131.21 67.71 131.57 66.22 132.76 65.5 134.21 65.62 134.62 65.48 136.18 65.33 136.49 65.56 137.75 65.87 138.63 65.79 139.1 66.45 139.31 65.44 139.51 64.82 139.87 65.48 140.13 65.71 139.82 66.68 139.75 66.94 140.34 67.13 139.51 67.42 139.67 67.46 140.5 67.93 140.08 68.55 140.42 68.99 140 69.44 140.83 69.54 141.89 69.28 143.11 68.68 143.24 68.61 143.65 68.24 143.65 68.02 142.93 67.87 141.63 67.56 141.63 67.6 143.31 67.94 143.86 66.96 143.86 66.3 143.52 65.52 142.69 65.71 142.2 63.42 142.72 62.53 142.97 62.49 142.76 64.47 142.05 63.95 141.71 63.42 141.69 62.82 141.14 61.97 141.4 61.68 141.92 61.7 143.03 61.43 143.37 60.16 143.57 59.97 143.81 58.15 144.74 56.07 146.31 55.41 146.37 54.48 147.04 53.92 147.19 53.57 147.58 52.68 148.02 51.26 149.45 50.52 149.76 49.84 151.15 49.77 152.47 49.32 153.09 49.26 153.56 48.76 153.84 48.99 154.13 49.2 157.08 48.83 157.44 49.26 157.85 49.18 159.25 48.87 160 47.24 159.48 45.34 159.02 44.04 159.3 43.25 159.61 41.64 161.22 40.63 161.86 40.16 161.27 39.99 160.13 39.64 159.69 38.3 159.92 37.21 159.74 36.63 158.94 35.85 156.97 35.23 156.04 34.88 155.89 34.11 156.02 33.18 155.01 32.4 154.67 32.01 153.27 31.35 152.86 31.24 152.29 31.14 149.21 31.93 147.79 32.46 146.55 32.34 145.69 33.6 144.14 35.25 142.67 36.49 140.65 36.79 139.93 37.87 138.76 39.29 138.12 40.72 137.21 41.62 136.93 42.08 136.98 43.11 135.74 44.99 134.16 46.47 133.28 47.13 132.06 48.64 131.49 49.22 130.51 49.92 129.84 50.93 129.55 51.73 129.11 52.19 129.16 54.29 128.65 54.69 127.22 55.94 126.6 56.01 126.16 56.52 125.41 57.06 125 57.55 124.92 58.36 124.38 58.63 123.78 59.14 123.37 59.97 122.2 61.19 121.14 62.14 120.65 62.55 119.39 63.29 119 63.79 118.38 64.51 116.69 65.02 116.83 65.33 117.37 66.26 117.78 66.61 118.79 66.67 119.57 67.25 119.83 67.67 120.68 68.12 121.02 68.02 121.66 68.99 122.18 69.96 121.56 70.45 120.96 70.66 120.32 70.51 119.88 71.75 118.71 73.14 118.09 73.49 117.44 73.82 116.15 74.54 115.5 76.13 114.44 76.46 113.8 77.05 114.34 77.55 114.03 78.48 113.82 79.95 114.16"/></g></g></g></svg>