<svg xmlns="http://www.w3.org/2000/svg" xmlns:xlink="http://www.w3.org/1999/xlink" viewBox="0 0 104.23 152.8"><defs><style>.cls-1{fill:none;stroke:#000;stroke-linecap:round;stroke-linejoin:round;stroke-width:0.5px;}.cls-2{mask:url(#mask);}.cls-3{fill:#07c;}.cls-4{fill:#ffc780;}.cls-5{filter:url(#luminosity-noclip);}</style><filter id="luminosity-noclip" x="0" y="0" width="104.23" height="152.8" filterUnits="userSpaceOnUse" color-interpolation-filters="sRGB"><feFlood flood-color="#fff" result="bg"/><feBlend in="SourceGraphic" in2="bg"/></filter><mask id="mask" x="0" y="0" width="104.23" height="152.8" maskUnits="userSpaceOnUse"><g class="cls-5"><path class="cls-1" d="M14.2,119.66l.28-1.42-.57-.89-.6-.28-1.23.32"/><path class="cls-1" d="M37.92,124.16l-1.26-.4-1.48-.36-1,.22-.62.24-1.25,1.24-.78.5-.36-.46-.14-.88-.27-.34-1,.18-.84-.14-.46-.62-.6-1.53-.48-.72-.27-.12-.6.1-.72-.79-.61-.26-.3-1.08-.51-.32-.09-.44-.08-2.39.62-1.11.41-1-.09-.66,1-1.21,1.28-1.14,1-1.57.23-.56.84-.9,1.1-.5,1.11-.71.69-.22.37,0,.79-1,1.46-1.23,1.15-.68.51-.94,1.17-.44.46-.77.54-.52.78-.22.62-.34.36,0,1.63-.4.31-1.11,1-.48.06-.34.39-.58.42-.32.37-.06.64-.42.21-.47.39-.32.65-.9,1-.82.73-.38.32-1,.57-.3.39-.48.56-1.31.39.1.24.43.72.32.28.78,0,.6.45.2.33.67.35.26-.08.5.76.4.75-.48.38-.46.16-.51L54.71,93l1-.9,1.08-.48.27-.5.26-1,.55-.5,1.24-.82.25-.5.46.42.39-.24.72-.16,1.14.26.31.38"/><path class="cls-1" d="M49.11,92.34l-.57.3-.36,0-.27.28-.44-.66-.3-1.1L46.39,91l-.23-.39-.59-.1-.19-.86-.35-.3-.15-.52.11-.58.19-.19.21-.76-.12-.6.15-.44.45-.3.53-.16.12-.59.47-.28.42-1.32.41-.3.06-.71.34-.14.48.08.61-.52.09-.86-.08-.42.62-.24.41-.38-.08-.27-.84-.38-.67-.56-.36-.68-.22-.12-.79,0-.34.16v-.52l.27-.65-.93-1.26-.21-1.17"/><path class="cls-1" d="M22.54,145.14v-1.47l.18-.8-.35-.44-.27-1.15.18-1v-.77l-.39-1-.11-.7-.47-.66-.1-1.07-.17-.54-.39-.36-.15-.86.12-1.23.45-1.08.5-1.55.33-.32-.16-.5-.8-.82-.3-.14-.37.2-.82,1.38-.35.18-.6-.12-1.25-1.83-1.4.77-.86.08-.42-.2-.17-.67-.45-.92-.06-.34.24-1,0-.24-.48-.19L13,125l-.18-.82.15-.46,0-1.39.28-1.34.53-.89.44-.42,1-.16,1.58-.88.77-.28.47-.67.3-1.06.6-.58.44-.72.76-.55,1.28-.18.56-.2.63.28,1.48-1,.41-.7.6.1.09.66-.41,1-.62,1.11.08,2.39.09.44.51.32.3,1.08.61.26.72.79.6-.1.27.12.48.72.6,1.53.46.62.84.14,1-.18.27.34.14.88.36.46.78-.5,1.25-1.24.62-.24,1-.22,1.48.36,1.52.48"/><polyline class="cls-1" points="62.57 89.25 62.04 88.59 60.9 88.33 60.18 88.49 59.79 88.73 59.33 88.31 59.08 88.81 57.84 89.63 57.29 90.13 57.03 91.14 56.76 91.64 55.67 92.12 54.71 93.02 54.83 93.36 54.67 93.87 54.29 94.33 53.54 94.81 52.78 94.41 52.86 93.91 52.51 93.65 52.18 92.98 51.73 92.78 51.69 92.18 51.41 91.4 50.69 91.08 50.45 90.66 50.74 89.63 51.61 88.49 51.88 87.28 52.45 86.32 52.95 85.86 54.5 83.79 55.1 83.65 55.31 83.13 55.48 82.08 55.99 81.8 56.4 81.4 57.17 80.22 57.93 79.27 58.16 78.19 58.43 78.19"/><path class="cls-1" d="M58.21,77.94l-.28,1.33-.76,1L56.4,81.4l-.41.4-.51.28-.66-.46-.34-.72"/><path class="cls-1" d="M82.29,76.08l-.9-.94-.8-.2-1.19-.1-3.1.36-1.4.12-.72-.3-.66.18-1.15-.06-1.7.23"/><path class="cls-1" d="M85.44,72l-.9-.75-1-.12-.54-.52.07-1.12-.22-.65.06-.72-.38-.46-.06-.48-.27-.1-.65-.58H81l-.35-.27.35-1.9.63-1.87-.39-1,.75-.79.77-.32V59.7L83,59l-.46-.32.29-.65-.17-.64-.6-.2-.25-.44,0-.54.47-.56.59.62.69.26,0-.42L84,56,84,55.2l.47-.54,1.27-.06-.09-.52,1-1.18.11-1.21.71-.58.78-.18.51.34.48.1.44-.66.84-.61.44-.14.29-.48.4-.16"/><path class="cls-1" d="M97.71,55.24l-.53-.94-.4-.08-.94-.92-1.41-1.81v-.9L93.66,50l-.2.61-1.88-1.29.17-.28-.06-.8.63-.42,1.11-.41.58-.68.1-.8.74-.22.72-.5.32-.48L96,43.64l1.37,1.09.41-.49.61-1.84.53-.89.63-.76-.07-.26-.45.18-.22-.18.23-.75.28-.63.39-.32.28-.74"/><path class="cls-1" d="M67.67,50.73l.64.34,1.11.06.51.46-.34.16-.3.5.31.85.32-.14.19,1,.56.32.12.66.6.18.27.36-.37,0-.78,1-.2.42-.62.36-.28.74.58.39,0,.9.66.74.2.7-.17,1.09.14.2-.47.24-.05.48-1.25,1-.42.76"/><polyline class="cls-1" points="80.54 35.24 79.97 35.45 79.92 35.89 79.49 36.48 79.67 36.82 79.12 36.55 78.92 36.9 79.13 37.26 79.03 37.72 79.16 38.4 79.86 40.03 79.94 40.99 80.25 41.45 80.16 41.98 80.37 42.68 80.97 42.9 81.06 43.22 81.53 43.6 82.19 43.74 82.72 44.34 82.85 45.59 83.3 46.53 84.67 47.21 84.97 47.92 84.73 48.82 84.54 49.14 84 48.86 83.65 49.46 83.09 49.44 83.38 48.64 83.17 48.5 82.73 48.72 82.13 48.78 81.54 48.2 81.1 48.76 80.83 48.82 80.83 49.32 82.1 49.82 82.23 50.01 81.89 50.95 82.41 51.85 82.05 52.07 81.27 51.81 81.1 52.45 81.65 53.56 81.89 53.78 82.52 53.9 82.66 54.98 82.22 55.69 81.75 56.25 80.97 56.33 79.89 56.31 79.57 56.71 79.09 56.95 78.69 57.75 78.33 57.91 77.13 57.85 76.36 57.59 76.33 57.13 76.77 56.21 76.89 55.69 76.71 55.24 77.1 54.42 77.1 54.16 76.51 54.18 76.2 53.98 76.36 53.22 76.14 52.72 76.32 52.07 75.91 51.49 76.24 51.01 76.59 50.15 77.01 49.52 76.9 49.38 76.35 49.62 75.67 49.2 74.36 49.32 74.21 49.16 73.94 49.54 73.2 49.96 72.25 49.9 71.47 50.23 70.9 50.35 70.6 51.29 69.93 51.59 69.42 51.13 68.31 51.07 67.33 50.54"/><polyline class="cls-1" points="67.88 34.23 69.02 34.07 69.57 33.68 70.37 33.44 72.43 32.98 73.29 32.86 73.37 32.04 73.79 30.97 74.09 31.18 74.81 30.8"/><path class="cls-1" d="M68.75,20.37l-.37.23L66.69,22"/></g></mask></defs><g id="Layer_2" data-name="Layer 2"><g id="Layer_1-2" data-name="Layer 1"><g class="cls-2"><polygon class="cls-3" points="91.58 49.32 91.18 49.48 90.89 49.96 90.45 50.1 89.61 50.71 89.17 51.37 88.69 51.27 88.18 50.93 87.4 51.11 86.69 51.69 86.58 52.9 85.61 54.08 85.7 54.6 84.43 54.66 83.97 55.2 84.04 55.95 83.54 56.15 83.5 56.57 82.81 56.31 82.22 55.69 82.66 54.98 82.52 53.9 81.89 53.78 81.65 53.56 81.1 52.45 81.27 51.81 82.05 52.07 82.41 51.85 81.89 50.95 82.23 50.01 82.1 49.82 80.83 49.32 80.83 48.82 81.1 48.76 81.54 48.2 82.13 48.78 82.73 48.72 83.17 48.5 83.38 48.64 83.09 49.44 83.65 49.46 84 48.86 84.54 49.14 84.73 48.82 84.97 47.92 84.67 47.21 83.3 46.53 82.85 45.59 82.72 44.34 82.19 43.74 81.53 43.6 81.06 43.22 80.97 42.9 80.37 42.68 80.16 41.98 80.25 41.45 79.94 40.99 79.86 40.03 79.16 38.4 79.03 37.72 79.13 37.26 78.92 36.9 79.12 36.55 79.67 36.82 79.49 36.48 79.92 35.89 79.97 35.45 80.35 35.31 80.74 36.39 81.51 37.12 82.2 38.38 81.77 38.04 81.19 37.86 81.59 37.72 80.82 37.06 80.16 37.1 80.32 37.76 80.62 37.84 80.61 38.4 81.22 38.42 81.42 38.92 81.83 39.1 82.07 38.84 82.41 39.04 82.46 39.51 82.87 39.47 82.52 38.36 82.82 38.48 83.12 39.1 84.72 39.95 85.36 40.11 87.14 41.53 88.63 42.09 89.25 42.22 89.73 42.56 90.59 42.72 90.92 42.92 90.33 43 91 43.42 91.06 42.94 91.48 43.1 92.08 43.14 93.71 43 94.83 42.32 95.27 41.85 95.54 41.09 95.93 40.89 96.64 39.61 97.94 39.34 98.3 38.88 99.04 38.72 99.07 38.16 99.85 38.3 99.62 38.78 98.89 39.02 98.97 39.61 98.8 40.49 99 40.67 99.46 40.49 99.53 40.75 98.9 41.51 98.37 42.4 97.76 44.24 97.35 44.73 95.98 43.64 95.89 44.73 95.57 45.21 94.85 45.71 94.11 45.93 94.01 46.73 93.44 47.41 92.32 47.82 91.69 48.24 91.75 49.04 91.58 49.32"/><path class="cls-3" d="M73.32,28.14v.59l-.59.08-.57-.2-.22-.33-.22.14.08-.48.54,0,.27.24.8-.58.23.32ZM76,20.58l.39.44.4.16-.28.76.57.82-.41.49-.15-.51-.37.12-.15-.6-.32.06-.75-.62.34,0,.11-.64-.42-.4.51-.14-.18-.21.07-.42.42.08Zm-7.41-.08.92,1.32.63.4-.18.66.69.23-1.22,0,.29,1-.05.58-.33-.78-.24-.12.17.52-.25.22.32.32-.33.46.1.63.26.22h1l-.7.4-.55-.18.34.5.52,1.77-.45-.21-.25.13-.37-.71-.61.26-.08.26h.5l-.32.27.23.24,0,.72.18,0,.27-.58.37-.18,1,.12.21.14-.29.66.14.46.16-.14.27-1.28.33.84,0,.3.58-.14-.19-.48.71.08v.78l.27.26.59-.32.64,0,.39.28.38.52-.51.27-.3-.21L73.37,32l-.08.82-.86.12-2.06.46-.8.24-.56.39-.54.08-.57-1.67-.45-1.08.8-.06.22.16-.13.32.45.92,0,.38.29.44,0-.76.47-.14-.63-.18.65-.5,0,.28L70,31.8l.44-.18.46.48.06-.6-.8-.3L70,30.63l-.24.28-.14-.38L70,30,68.8,30l-.55.26-.2.56-.39-.1-.56.46-.28-.3-.36-1.34-.35-1.65-.47-.9-1.26-1.67-.27-.54-.06-.54.27-.32-.08.66.24-.44.27,0,.53,1,.29.14-.06.34.48.21-.36.12.06.42.37.16,0-.32.27.56.2-.22.16-.74,0-.77-.19,0v-.6l.19-.28-.25-.4.24-.38-.3-.18-.43.36-.55,0-.5-.28.15-.59.38.12.58-.08,1.21-.78-.11-.3,1.22-1Z"/><path class="cls-3" d="M68.31,51.07l-.64-.34.23-.85.06-2,.42-1.19.2-.84.18-1.37-.12-.8.63,0,.62.58-.06-.34.78-.06-.36-.66-.44,0-.4.28.06-.48.82-.66-.3-.47-.36.63-.27-.4.09-1.13.26-.54.43-.14,1-.08-.26-.24.2-.56-.51.46L70,39.69l-.54-2.31L69,36.05l-.09-.64.58-.34.42-1-.48.32-.27.48-.34-.12-.3-.62.54-.08.56-.39.8-.24L72.43,33l.86-.12.08-.82L73.79,31l.3.21.51-.27.05.61-.14.8.42.92.74.24.78-.28.3-.22.12.68.29.16-.24-1.28L76.74,32l0-.62-.29-1-.57-.68-.24-.48.62,0,.15-.18-.57-.12.39-.22-.26-.1.63-.27-.24-.12-.24-.84.2-.6L75.8,26l-.51-.24L75,25.29l.08-.62h.72l.6.68.24-.28.27.54-.24.53.58.24.06.76.24.26-.14.38.18.36.39-.28,1-.36.55.14-.13.38-.27,0-.23.38-.48.29-.3.44.28.54.23-.26L78.62,29l.71-.12.46,1.18,0,1.15.26.68-.34.66.31.12,0,.62-.32-.4.11.76.36.63.12,1-.37.14-.07.44-.42.58.18.35-.55-.27-.2.35.21.36-.1.46.13.68L79.85,40l.1,1,.3.46-.09.52.21.71.6.22.09.32.47.38.66.14.53.6.13,1.25.45.94,1.37.68.3.71-.24.9-.19.32L84,48.86l-.35.6-.56,0,.29-.8-.21-.14-.44.22-.6.06-.59-.58-.44.56-.27.06v.5l1.27.5.13.18-.34,1,.52.9-.36.22-.78-.26-.17.64.55,1.11.24.22.63.12L82.66,55l-.44.71-.47.56-.78.08-1.09,0-.31.4-.48.24-.39.8-.37.16-1.2-.06-.77-.26,0-.46.44-.92.12-.52-.18-.45.39-.82v-.26l-.59,0L76.2,54l.16-.76-.22-.51.18-.64-.41-.58.33-.48.35-.86.42-.63-.11-.14-.55.24-.68-.42-1.31.12-.15-.16-.27.38L73.2,50l-1-.06-.78.33-.57.12-.3.94-.67.3-.51-.46Z"/><path class="cls-3" d="M69.66,76.38l-.16-.16.4-.56.27.06ZM82,75.72l-.65,1.55-.44.16-.46.72-.52,1.5L79,80.86l-1.37,1.08-.33.34-1,.55-2,1.48-.6.24-.45.42-1,0L72,83.77l.16-.88-.13-.2-1-.45-.45,0-.65.61-.32,0-.3-.24.11-.33-.08-.7.27-.7,0-.56-.68,0-.38.54.53.24-.29.44-.52.12-.82-.3-.31-.36,0-.64.55-.14.73-.77.22-.48.53-.34.27.12-.24-.62.66-.48.24-.36.35-1.11.78-1,1.19-.16,1.15.06.66-.18.72.3,1.4-.12,3.1-.36,1.19.1.8.2Z"/><polygon class="cls-3" points="85.14 71.77 84.96 72.13 84.34 72.13 83.8 72.95 83.26 73.47 82.87 74.31 82.53 74.53 81.95 75.72 81.39 75.14 80.59 74.94 79.4 74.84 76.3 75.2 74.9 75.32 74.18 75.02 73.52 75.2 72.37 75.14 71.18 75.3 71.89 73.93 72.33 72.71 72.43 71.56 72.67 71.48 72.58 70.94 72.81 69.98 72.85 69.4 72.66 69 72.42 67.59 72.18 67.01 71.51 66.28 71.33 65.94 70.55 64.98 69.44 64.34 68.82 64.28 69.08 63.82 70.33 62.77 70.37 62.29 70.84 62.05 70.7 61.85 70.87 60.76 70.67 60.06 70.01 59.32 69.99 58.42 69.41 58.03 69.69 57.29 70.31 56.93 70.5 56.51 71.29 55.52 71.67 55.48 71.39 55.12 70.79 54.94 70.67 54.28 70.11 53.96 69.92 52.95 69.6 53.1 69.29 52.25 69.59 51.75 69.93 51.59 70.6 51.29 70.9 50.35 71.47 50.23 72.25 49.9 73.2 49.96 73.94 49.54 74.21 49.16 74.36 49.32 75.67 49.2 76.35 49.62 76.9 49.38 77.01 49.52 76.59 50.15 76.24 51.01 75.91 51.49 76.32 52.07 76.14 52.72 76.36 53.22 76.2 53.98 76.51 54.18 77.1 54.16 77.1 54.42 76.71 55.24 76.89 55.69 76.77 56.21 76.33 57.13 76.36 57.59 77.13 57.85 78.33 57.91 78.69 57.75 79.09 56.95 79.57 56.71 79.89 56.31 80.97 56.33 81.75 56.25 81.77 56.79 82.02 57.23 82.63 57.43 82.79 58.07 82.5 58.72 82.96 59.04 82.78 59.7 82.79 60.36 82.02 60.68 81.27 61.47 81.66 62.47 81.03 64.34 80.68 66.25 81.03 66.5 81.6 66.5 82.25 67.09 82.52 67.19 82.58 67.67 82.96 68.13 82.9 68.85 83.12 69.5 83.05 70.62 83.59 71.14 84.54 71.26 85.14 71.77"/><polygon class="cls-3" points="99.85 38.3 101.69 38.5 102.24 39.23 102.86 39.34 103.15 39.57 103.79 39.73 104.12 40.07 104.23 40.51 103.58 41.25 103.22 42.08 102.88 42.28 102.42 43.26 102.08 43.74 102.29 44.66 102.23 44.97 101.78 45.43 101.97 45.93 101.59 46.83 101.96 47.44 101.69 47.84 101.52 48.38 101.76 48.82 101.28 49.18 101.19 50.02 100.1 51.13 98.96 51.99 98.39 51.55 97.79 51.75 98.04 52.45 97.77 53.14 97.73 53.76 97.45 54.78 97.18 54.3 96.78 54.22 95.84 53.3 94.43 51.49 94.44 50.59 93.66 50.01 93.47 50.61 91.58 49.32 91.75 49.04 91.69 48.24 92.32 47.82 93.44 47.41 94.01 46.73 94.11 45.93 94.85 45.71 95.57 45.21 95.89 44.73 95.98 43.64 97.35 44.73 97.76 44.24 98.37 42.4 98.9 41.51 99.53 40.75 99.46 40.49 99 40.67 98.8 40.49 98.97 39.61 98.89 39.02 99.62 38.78 99.85 38.3"/><polygon class="cls-3" points="97.45 54.78 97.39 55.69 97.11 56.25 97.73 56.33 98.12 56.81 97.61 57.29 97.26 58.26 96.85 58.64 96.6 57.53 96.67 56.99 96.94 56.37 96.52 56.45 96.02 56.13 93.15 55.87 92.88 55.71 92.62 55.91 89.66 57.21 89.25 58.07 88.42 58.92 88.12 59.5 88.09 60.06 88.42 60.64 88.5 62.17 89.14 62.65 89.9 62.73 89.53 63.49 89.1 63.7 88.78 64.86 88.42 65.18 88.09 66.2 87.7 66.97 87.65 67.57 87.11 68.61 86.73 69.11 86.25 69.5 86.01 69.3 85.68 69.68 85.56 70.12 85.86 69.88 85.25 71.04 85.14 71.77 84.54 71.26 83.59 71.14 83.05 70.62 83.12 69.5 82.9 68.85 82.96 68.13 82.58 67.67 82.52 67.19 82.25 67.09 81.6 66.5 81.03 66.5 80.68 66.25 81.03 64.34 81.66 62.47 81.27 61.47 82.02 60.68 82.79 60.36 82.78 59.7 82.96 59.04 82.5 58.72 82.79 58.07 82.63 57.43 82.02 57.23 81.77 56.79 81.75 56.25 82.22 55.69 82.81 56.31 83.5 56.57 83.54 56.15 84.04 55.95 83.97 55.2 84.43 54.66 85.7 54.6 85.61 54.08 86.58 52.9 86.69 51.69 87.4 51.11 88.18 50.93 88.69 51.27 89.17 51.37 89.61 50.71 90.45 50.1 90.89 49.96 91.18 49.48 91.58 49.32 93.47 50.61 93.66 50.01 94.44 50.59 94.43 51.49 95.84 53.3 96.78 54.22 97.18 54.3 97.45 54.78"/><polygon class="cls-3" points="67.16 21.6 66.18 22 65.67 22.38 65.18 22 65.78 22.2 66.44 20.48 66.08 20.36 66.12 20.72 65.76 21.42 65.4 21.3 65.34 21.02 64.94 20.92 65.06 20.27 64.6 20.6 64.51 20.25 64.09 20.58 64.18 20.92 64.6 21 64.72 21.5 65.01 21.36 65.36 21.72 64.72 22.02 64.27 21.72 63.7 20.9 63.08 20.84 62.36 20.21 62.24 19.37 61.86 18.73 61.47 18.37 61.91 17.87 61.55 17.32 61.68 17.99 61.28 18.37 61.82 19.19 62.01 19.31 62.2 20.09 62.45 20.6 62.77 20.8 63.59 22.06 63.99 22.12 63.88 22.36 64.26 22.95 64.18 23.21 63.55 23.55 63.1 23.55 62.87 23.14 62.59 22 61.38 20.3 61.05 19.61 56.84 13.79 56.85 13.37 57.17 12.95 57.33 12.21 57.69 11.98 58.12 12.41 58.16 11.76 58.42 12.14 58.51 11.5 59 11.34 59.26 10.76 58.61 11.04 58.35 10.3 58.19 10.48 58.42 11.1 57.38 11.68 57.21 11.46 56.85 11.66 56.68 13.09 56.49 13.13 55.67 11.98 55.62 11.46 55.95 11.1 55.67 11.08 56.01 10.62 55.54 10.84 55.34 11.42 54.89 10.86 55.42 10.36 54.83 10.54 54.55 10.36 53.94 9.66 53.88 9.27 54.38 9.33 54.7 8.89 54.91 7.75 54.79 7.15 54.35 6.22 53.6 5.38 53.31 4.62 53.01 4.4 51.07 1.79 49.86 0.96 50.12 0.58 50.13 0.16 50.51 0.38 51.31 0.56 52.02 0.16 53.12 0.26 53.6 0 53.75 0.16 53.39 0.58 53.36 1.47 53.12 1.53 52.89 0.88 52.62 0.82 52.51 1.39 52.09 1.69 52.5 2.03 53.03 2.23 53.03 2.89 53.25 2.61 53.33 1.81 53.67 3.53 54.7 4.64 54.79 5.14 54.13 4.42 54.16 4.84 54.56 5.24 55.83 6 55.51 6.6 55.49 7.09 56.01 7.25 56.5 6.68 56.4 5.54 56.82 5.4 57.33 4.9 57.27 5.32 57.66 5.16 57.78 5.54 57 5.72 56.84 5.94 57.2 6.71 57.54 6.97 58.22 6.95 58.57 7.25 58.7 7.01 58.38 6.62 58.48 6.22 58.84 6.54 59.18 6.46 59.29 6.72 59.97 6.64 60.12 7.07 60.46 7.19 59.89 7.85 60.22 8.23 60.46 8.17 60.72 7.21 61.47 7.13 61.7 7.51 62.23 8.01 62.41 8.51 63.26 8.51 63.72 8.73 63.97 9.27 63.46 9.36 63.38 8.99 63.05 8.89 62.72 9.09 62.99 9.46 62.66 9.49 62.78 9.8 63.38 9.7 63.37 10.36 63.79 10.88 63.91 11.46 64.08 11 64.47 11.16 64.83 10.8 64.05 10.54 64.15 10.3 64.86 10.36 65.85 9.49 65.91 9.8 65.64 10.54 65.87 10.94 66.29 10.94 66.33 11.68 65.63 11 66.12 12.09 66.97 12.51 67.22 13.05 66.86 13.09 67.84 14.17 67.78 14.84 66.95 14.71 67.61 15.26 67.31 15.64 67.96 16.12 67.9 16.54 68.14 17.1 67.89 17.16 67.3 16.68 67.12 16.2 66.06 16.42 66 15.78 65.84 15.52 65.75 17.04 65.96 17.16 66.17 16.78 67.18 16.9 67.28 17.36 66.91 17.81 67.06 17.97 67.07 18.77 67.78 19.33 68.32 19.57 68.28 20.2 68.55 20.5 68.38 20.6 67.16 21.6"/><polygon class="cls-3" points="69.93 51.59 69.59 51.75 69.29 52.25 69.6 53.1 69.92 52.95 70.11 53.96 70.67 54.28 70.79 54.94 71.39 55.12 71.67 55.48 71.29 55.52 70.5 56.51 70.31 56.93 69.69 57.29 69.41 58.03 69.99 58.42 70.01 59.32 70.67 60.06 70.87 60.76 70.7 61.85 70.84 62.05 70.37 62.29 70.33 62.77 69.08 63.82 68.82 64.28 68.49 64.28 67.77 64 67 63.88 65.85 62.79 65.18 61.73 64.81 61.33 63.88 60.91 62.36 60.64 61.83 60.46 60.63 59.5 60.04 58.68 59.82 57.59 60 56.51 60.27 55.97 60.69 55.65 61.62 55.24 63.94 53.78 64.15 53.72 65.36 53.84 66.18 53.4 67.3 52.25 67.43 52.03 67.67 50.73 68.31 51.07 69.42 51.13 69.93 51.59"/><path class="cls-3" d="M65.27,79.27,65,80h-.48l-.42.3h-.59l.56-.2.46-.51.15.16.33-.28-.36-.38.64-.2ZM61.41,75l-.31,1h-.22l-.81.68-.25-.06.07-1,.36.38-.09-.42.11-.8.22.14.29-.26.09.46.66-.85Zm-3.25,3.23h.27l.23.38.82-.44-.12-.38L59,78,59,77.73l.6-.46.46-.09.46-.5,0,.57.21,0,.36-.57.62-.32.36.08.09.3-.59-.06-.12.48-.36.09,0,.3-1.2.1.21.24-.32.8.18.12.33-.6.89-.12,0,.44-.37-.14v.42l-.56.52.48.36-.13.53-.84.42.24.3,1.26-.7-.42-.18.56,0,.27.14.89-.31.45-.26-1.39,0-.69.18,0-.54.32-.28.18-.48.3.06-.06.72.34-.62h.26L62,78.31l.15-.22-.2-.32-.16.42-.44-.5h.3l.14-.49.84.61.44-.12.34-.4.24.3,0,.4-.27.12.37.26.69-.74.19.1-.52.92L64,79l-.38.34-.12-.6-.31.32.42.76-.54.37-.59,0-.38.22-.66.06-.3.36.72-.06.43-.28.72-.14.33.3.86-.26.36-.26-.26.56-.46.66-.62.28.22-.44-.58.14-.7,1.2,0,1.09.5.5v-.62l.47.86.15.78.3.93.57.1-.06.26-.78,1.42-1,1.09L62,88.59l-1.14-.26-.72.16-.39.24-.46-.42-.25.5-1.24.82-.55.5-.26,1-.27.5-1.08.48-1,.9.12.34-.16.51-.38.46-.75.48-.76-.4.08-.5-.35-.26L52.18,93l-.45-.2,0-.6-.28-.78-.72-.32-.24-.43.29-1,.87-1.14.27-1.21.57-1,.5-.46,1.55-2.07.6-.14.21-.52.17-1L56,81.8l.41-.4.77-1.18.76-1Z"/><path class="cls-3" d="M11.14,151.68l-.12-.1-.6.46.15.14.71-.28-.39.66-.13-.26-.22.32-.83.18,0-.8.15-.28.57-.34-.15-.08v-.82l.21-.39.74-.3-.12-.84.33-.08.25-.64-.16-.5-.36-.53,0-.62.18-.68.75,0,.3-.24.69.46.79,1,.81.73-.17.38-.72,0,0-.18-.59.12.07.34L13,149l.19,0,.43-.5.84.36-.06.32.69-.3.26.3-.08.5-.37.1.48.34-.58,0,.06.29-1.52.4-.7.82-.52-.22-.39.06-.21-.38-.34.26ZM1.54,140l-.14-.3.23-.18.16.14Zm.87-4.66-.86.42-.38,0,.77-.36Zm.51,0-.33,0,.14-.3.49,0Zm-1-1.45.26.73-.09.46-.32.16L1.63,135l-.24.26-.16-.72L1,134.4l-.46.66-.29.16.41-1.06.93-.33Zm2.2-4-.39,0-.65-.32-.19-.38.54-1.07.31,1ZM14.2,119.66l-.44.42-.53.89L13,122.31l0,1.39-.15.46L13,125l.66.84.48.19,0,.24-.24,1,.06.34.45.92.17.67.42.2.86-.08,1.4-.77,1.25,1.83.6.12.35-.18.82-1.38.37-.2.3.14.8.82.16.5-.33.32-.5,1.55-.45,1.08-.12,1.23.15.86.39.36.17.54.1,1.07.47.66.11.7.39,1v.77l-.18,1,.27,1.15.35.44-.18.8v.62l-.32.58-.39,0-.32-.24-.19.55L20,144.75l-.32-1-1.16.32.11-.26-.77-.1.26.62-.42.16-1.39-.06.3-.38.84.1-.42-.26-.7.06-.5-.22v.44l.36.5-.72-.44-.43-.62.51,0,.4-.38.06-.32-.25-.64-.32.76-.16,0-.79-1.43-.37-.18-.89.26,0,.34-.9-.08-.11.24-.66.13-.94-.83.37-.36-.67-.84-.15-.34-.49,0-.4-.24-1-.06L8,140.86l-.39,0-.48.28-.5-.12-.47.18-.75-.36-1-.06-1.12.12-.54-.06-.48-.3-.27-.5.3-.18.53-.81.28-.82.93-.68-.18,0-1,.62-.1.58-.26.36-.17-.42-.07.38-.81.34.19-.42.06-.64.36-.36.68-.28.11-.28-.53.28-.44-.16.41-.58-.12-.29L1.43,138l-.75.3-.33.36-.2-.34L0,136.6l.15-.38,2.23-.38.63-.26.36,0,.92-.76.08-.26-.46.2-.6,0-.74.28L2.38,135l.35-.6.54-.29-.92.17,0-.75,1-.46.66.12-.35-.32.76-.42,0-.28-1,.64-.66.2-.44.3-.57,0L1.64,133l.24-.68.17-.93.34-.22.83.39.36.06L3.33,131l-.23.2-.48-.26-.32-.36.56-.84.68.52-.2.34.71-.22.35.44-.35.58h.36l.3-.58.44.34.25.67.29.08-.07-.38L5.15,131l-.89-.78.24-.26,1-.32.37.46-.1-.44.1-.42L5,129.5l-.81,0-.35-.74-.11-.65.21-.34.46.1.36.44.37-.06-.82-.74h-.2l.47-.78.52.56.06.44.25-.46.49,0-.8-.38-.25-.38.25-.46,1.21.34-1.15-.61.17-.34.51-.46.35-.06L6,124.74l.6-.44.27,0,.33.64-.09.46.23.65.43,0-.34-.66,0-.48-.32-.78.08-.42.51-.32.36.38-.14.74.25.22.18-.82-.46-.91.32-.22.65.44-.62-.66.18-.3.44-.16.15-.32.46-.42.49-.08.79.58.29.52,0-.64-.61-.44-.28-1.15.81-1.14.71-.74-.06-.39.75,0,.12-.48.86-.22.6.28.57.89Z"/><polygon class="cls-4" points="25.1 113.06 25.19 113.72 24.78 114.68 24.16 115.79 24.24 118.18 24.33 118.62 24.84 118.94 25.14 120.02 25.75 120.28 26.47 121.07 27.07 120.97 27.34 121.09 27.82 121.81 28.43 123.33 28.88 123.96 29.72 124.1 30.76 123.92 31.03 124.26 31.16 125.14 31.53 125.6 32.31 125.1 33.56 123.86 34.18 123.62 35.19 123.39 36.66 123.76 37.92 124.16 37.29 125.58 36.4 126.57 35.98 127.55 35.62 128.96 35.88 129.5 35.5 130.02 35.56 130.44 35.06 131 34.94 131.5 34.69 131.41 34.82 131.87 34.13 132.11 34.45 132.35 34.27 132.79 33.69 133.13 33.69 133.41 34.25 133.43 34.78 133.77 34.64 134.03 34.1 134.24 33.65 134.66 33.18 135.38 34.24 134.84 34.55 134.3 34.93 133.95 35.05 134.94 34.52 135.16 34.36 135.48 32.69 135.72 31.99 135.98 31.42 136.44 30.85 137.43 30.68 138.49 30.2 139.03 29.6 139.35 29.15 139.98 28.06 140.84 27.81 141.24 27.72 142.31 27.25 142.61 26.56 142.51 26.21 142.65 26.98 142.71 26.84 143.13 26.06 143.67 25.5 143.53 24.83 144.01 25.01 144.25 24.29 144.25 24.15 144.53 23.5 144.37 23.05 144.75 22.67 144.79 22.54 144.29 22.54 143.67 22.72 142.87 22.37 142.43 22.1 141.28 22.28 140.28 22.27 139.51 21.88 138.55 21.77 137.85 21.3 137.19 21.2 136.12 21.03 135.58 20.64 135.22 20.49 134.36 20.61 133.13 21.06 132.05 21.56 130.5 21.89 130.18 21.73 129.68 20.93 128.86 20.63 128.72 20.27 128.92 19.44 130.3 19.09 130.48 18.49 130.36 17.24 128.53 15.84 129.3 14.98 129.38 14.56 129.18 14.39 128.51 13.94 127.59 13.88 127.25 14.12 126.25 14.09 126 13.61 125.82 12.95 124.98 12.77 124.16 12.92 123.7 12.95 122.31 13.23 120.97 13.76 120.08 14.2 119.66 15.22 119.5 16.8 118.62 17.57 118.34 18.04 117.67 18.34 116.61 18.94 116.03 19.38 115.31 20.14 114.76 21.42 114.58 21.98 114.38 22.61 114.66 24.09 113.66 24.5 112.96 25.1 113.06"/><polygon class="cls-3" points="54.61 81.18 55.48 80.6 55.96 79.95 56.92 79.09 56.91 79.41 57.48 79.07 58.16 78.19 57.93 79.27 57.17 80.22 56.4 81.4 55.99 81.8 55.48 82.08 54.82 81.62 54.61 81.18"/><polygon class="cls-3" points="55.48 82.08 55.31 83.13 55.1 83.65 54.5 83.79 52.95 85.86 52.45 86.32 51.88 87.28 51.61 88.49 50.74 89.63 50.45 90.66 50.06 90.55 49.5 91.86 49.11 92.34 48.54 92.64 48.18 92.68 47.91 92.96 47.47 92.3 47.17 91.2 46.39 90.96 46.16 90.57 45.57 90.47 45.38 89.61 45.03 89.31 44.88 88.79 44.99 88.21 45.18 88.03 45.39 87.26 45.27 86.66 45.42 86.22 45.87 85.92 46.4 85.76 46.52 85.17 46.99 84.89 47.41 83.57 47.82 83.27 47.88 82.56 48.22 82.42 48.7 82.5 49.31 81.98 49.4 81.12 49.32 80.7 49.94 80.46 50.35 80.08 50.27 79.81 49.43 79.43 48.77 78.87 48.4 78.19 48.18 78.07 47.4 78.11 47.05 78.27 47.06 77.75 47.34 77.11 46.4 75.84 46.24 74.94 46.42 74.94 47.37 74.19 48.24 73.09 48.96 72.59 48.81 73.11 49.44 72.83 49.67 72.53 49.55 72.27 49.07 72.43 49.41 71.99 49.82 71.77 51.56 71.67 52.95 71.92 52.76 72.03 50.84 71.86 50.53 72.27 50.26 73.39 49.98 73.39 50.35 73.85 50.29 74.59 50.54 74.44 50.96 75.08 51.84 75.72 52.65 75.24 52.89 74.96 53.13 75.14 53.18 75.84 53.55 76.2 53.49 77.08 52.95 77.73 53.25 77.73 53.55 79.17 53.31 78.85 53.25 79.27 53.49 79.73 53.64 79.59 53.9 80.54 53.67 80.86 54.08 81.18 54.61 81.18 54.82 81.62 55.48 82.08"/><polygon class="cls-3" points="48.54 92.64 48.22 93.63 47.48 94.01 46.54 94.83 45.89 95.73 45.5 96.06 45.29 96.52 44.66 96.94 44.28 97 43.86 97.32 43.47 97.9 43.41 98.24 42.44 98.72 42.13 99.83 40.5 100.23 40.14 100.19 39.52 100.53 38.74 100.75 38.2 101.27 37.74 102.04 36.57 102.48 36.06 103.42 34.91 104.1 33.45 105.33 32.66 106.29 32.29 106.25 31.6 106.47 30.49 107.18 29.39 107.68 28.55 108.58 28.32 109.14 27.36 110.71 26.08 111.85 25.1 113.06 24.5 112.96 24.09 113.66 22.61 114.66 21.98 114.38 21.42 114.58 20.14 114.76 19.38 115.31 18.94 116.03 18.34 116.61 18.04 117.67 17.57 118.34 16.8 118.62 15.22 119.5 14.2 119.66 14.48 118.24 13.91 117.35 13.31 117.07 12.45 117.29 12.16 117.05 12.69 116.77 13.47 116.01 14.05 115.28 14.06 114.94 14.48 114.48 14.24 114.34 15.09 114.12 15.66 113.86 16.5 113.34 16.97 113.78 17.37 113.84 18.28 113.34 18.76 112.8 20.08 111.75 20.14 111.45 20.67 111.09 20.97 110.69 21.88 110.07 22.51 109.78 22.91 109.3 23.28 109.28 24.18 108.7 24.71 108.74 25.43 108.22 26.03 107.11 26.33 106.95 26.39 106.53 26.74 106.15 27.84 105.53 28 105.03 28.44 104.49 29.18 104.06 29.57 104.2 30.1 103.3 29.81 103.26 29.24 103.98 29.39 103.46 29.87 102.92 29.95 102.66 30.58 102.6 31.14 101.9 31.83 101.41 32.58 101.13 32.9 100.83 33.39 100.75 33.97 100.29 34.42 99.65 34.7 99.43 35.41 98.1 35.92 97.76 36.9 96.42 37.49 95.11 37.74 94.73 37.8 94.09 38.21 93.42 38.39 92.88 38.59 91.16 38.89 90.07 39.3 89.47 39.52 88.47 39.88 87.4 39.7 87.2 39.69 86.64 41.18 86.52 42.41 85.78 42.7 85.44 43.03 85.42 43.45 84.71 44.11 83.05 44.88 82.44 45 81.18 45.47 80.98 45.24 80.52 45.14 79.21 45.26 78.69 45.12 76.22 45.39 76.1 45.83 75.26 46.24 74.94 46.4 75.84 47.34 77.11 47.06 77.75 47.05 78.27 47.4 78.11 48.18 78.07 48.4 78.19 48.77 78.87 49.43 79.43 50.27 79.81 50.35 80.08 49.94 80.46 49.32 80.7 49.4 81.12 49.31 81.98 48.7 82.5 48.22 82.42 47.88 82.56 47.82 83.27 47.41 83.57 46.99 84.89 46.52 85.17 46.4 85.76 45.87 85.92 45.42 86.22 45.27 86.66 45.39 87.26 45.18 88.03 44.99 88.21 44.88 88.79 45.03 89.31 45.38 89.61 45.57 90.47 46.16 90.57 46.39 90.96 47.17 91.2 47.47 92.3 47.91 92.96 48.18 92.68 48.54 92.64"/><polygon class="cls-3" points="62.04 88.59 62.34 88.97 61.67 89.69 61.23 90.61 61.22 91.18 60.66 92.14 59.41 93.22 59.03 93.75 59.26 94.33 59.14 94.51 58.73 94.17 58.23 94.51 57.78 95.05 57.26 96.46 56.88 96.66 57.06 96.82 56.01 99.15 55.74 99.29 55.77 99.89 55.44 100.49 54.98 100.81 54.29 101.05 54.17 101.39 53.69 101.82 52.54 102.1 51.38 103.02 50.83 104.14 50.92 104.47 50.81 105.67 50.69 105.91 50.87 106.89 51.11 107.58 51.05 107.94 51.56 108.1 50.78 108.26 50.3 108.54 50.81 108.74 50.99 108.5 51.75 108.44 51.94 108.9 52.09 108.26 52.32 108.38 52.35 109.02 52.71 108.7 53.19 108.96 53.54 108.64 53.88 109.28 53.96 110.11 53.76 111.05 53.3 111.15 53.24 111.47 52.95 111.47 52.78 110.91 52.66 109.91 52.42 109.91 52.45 111.21 52.73 111.63 51.96 111.63 51.45 111.37 50.84 110.73 50.99 110.35 49.22 110.75 48.52 110.94 48.49 110.78 50.03 110.23 49.62 109.97 49.22 109.95 48.75 109.52 48.09 109.72 47.86 110.13 47.88 110.99 47.67 111.25 46.69 111.41 46.54 111.59 45.12 112.31 43.51 113.54 43 113.58 42.28 114.1 41.84 114.22 41.57 114.52 40.88 114.86 39.78 115.97 39.2 116.21 38.68 117.29 38.62 118.32 38.27 118.8 38.23 119.16 37.84 119.38 38.02 119.6 38.18 121.89 37.9 122.17 38.23 122.49 38.17 123.58 37.92 124.16 36.66 123.76 35.19 123.39 34.18 123.62 33.56 123.86 32.31 125.1 31.53 125.6 31.16 125.14 31.03 124.26 30.76 123.92 29.72 124.1 28.88 123.96 28.43 123.33 27.82 121.81 27.34 121.09 27.07 120.97 26.47 121.07 25.75 120.28 25.14 120.02 24.84 118.94 24.33 118.62 24.24 118.18 24.16 115.79 24.78 114.68 25.19 113.72 25.1 113.06 26.08 111.85 27.36 110.71 28.32 109.14 28.55 108.58 29.39 107.68 30.49 107.18 31.6 106.47 32.29 106.25 32.66 106.29 33.45 105.33 34.91 104.1 36.06 103.42 36.57 102.48 37.74 102.04 38.2 101.27 38.74 100.75 39.52 100.53 40.14 100.19 40.5 100.23 42.13 99.83 42.44 98.72 43.41 98.24 43.47 97.9 43.86 97.32 44.28 97 44.66 96.94 45.29 96.52 45.5 96.06 45.89 95.73 46.54 94.83 47.48 94.01 48.22 93.63 48.54 92.64 49.11 92.34 49.5 91.86 50.06 90.55 50.45 90.66 50.69 91.08 51.41 91.4 51.69 92.18 51.73 92.78 52.18 92.98 52.51 93.65 52.86 93.91 52.78 94.41 53.54 94.81 54.29 94.33 54.67 93.87 54.83 93.36 54.71 93.02 55.67 92.12 56.76 91.64 57.03 91.14 57.29 90.13 57.84 89.63 59.08 88.81 59.33 88.31 59.79 88.73 60.18 88.49 60.9 88.33 62.04 88.59"/></g></g></g></svg>